<svg width="777" height="113" viewBox="0 0 777 113" fill="none" xmlns="http://www.w3.org/2000/svg">
<path fill-rule="evenodd" clip-rule="evenodd" d="M220.754 0H283.284L267.915 32.1791H213.916C207.266 32.1791 201.071 34.5389 195.333 39.2585C189.594 43.9781 186.028 49.663 184.633 56.3134C183.185 62.9637 184.312 68.6487 188.012 73.3683C191.766 78.0879 196.969 80.4477 203.619 80.4477H244.482L228.959 112.627H196.781C181.228 112.627 169.107 107.129 160.419 96.135C151.784 85.1405 149.13 71.8666 152.455 56.3134C155.726 40.7602 164.039 27.4863 177.393 16.4918C190.747 5.49726 205.201 0 220.754 0ZM51.4632 112.581H19.2979L36.4258 32.1659L0 32.1659L22.9179 6.82827e-05L127.018 1.14441e-05L127.017 0.00218201H190.144C179.185 7.03485 163.464 17.5307 154.82 32.2848H103.668L103.752 32.1659H68.5913L51.4632 112.581ZM146.052 40.3555L123.003 72.6381H68.7674L75.2956 40.3555H146.052ZM146.052 80.7087C151.135 96.0179 157 102.681 170.102 112.74H60.2306L66.7588 80.7087H146.052ZM601.616 45.4748C597.056 66.8146 606.527 77.4845 630.029 77.4845H651.181C655.881 77.4845 658.02 78.5656 657.597 80.7278C657.033 83.266 654.4 84.5351 649.7 84.5351H607.397L587.303 112.738H643.707C667.209 112.738 681.239 102.068 685.799 80.7278C690.217 59.764 680.675 49.2821 657.174 49.2821H636.022C631.322 49.2821 629.254 48.013 629.818 45.4748C630.288 43.3126 632.873 42.2315 637.573 42.2315H676.351L696.445 14.0291H642.419C618.917 14.0291 606.081 24.511 601.616 45.4748ZM420.975 14.5299H394.648L354.814 97.7026H380.063L401.192 51.6605L407.727 97.7026H432.975L420.975 14.5299ZM541.091 63.0418L533.844 97.202H510.08L527.784 14.0293H551.547L544.24 48.1895L575.311 14.0293H605.015L566.399 55.7345L587.311 97.202H557.607L541.091 63.0418ZM521.111 14.5321H486.447C474.962 14.5321 464.288 18.5917 454.426 26.7109C444.565 34.8302 438.426 44.6326 436.01 56.1184C433.554 67.6041 435.515 77.4066 441.891 85.5259C448.307 93.6451 457.258 97.7047 468.744 97.7047H504.326L509.201 73.9411H473.793C468.882 73.9411 465.041 72.1984 462.268 68.7131C459.535 65.2278 458.704 61.0295 459.773 56.1184C460.803 51.2072 463.437 47.009 467.674 43.5237C471.912 40.0383 476.487 38.2957 481.398 38.2957H516.22L521.111 14.5321ZM289.752 0H321.963L302.496 40.2636H342.507L361.884 0H394.436L340.242 112.738H308.032L326.633 72.4745H287.145L267.769 112.738H235.558L289.752 0ZM706.442 0H401.142L397.402 8.51799H700.288L706.442 0ZM351.64 104.22H588.303L582.235 112.738H347.798L351.64 104.22ZM742.665 105.954C746.592 109.881 751.333 111.844 756.887 111.844C762.442 111.844 767.183 109.881 771.109 105.954C775.036 102.027 776.999 97.2866 776.999 91.7318C776.999 86.177 775.036 81.4363 771.109 77.5096C767.183 73.583 762.442 71.6197 756.887 71.6197C751.333 71.6197 746.592 73.583 742.665 77.5096C738.739 81.4363 736.776 86.177 736.776 91.7318C736.776 97.2866 738.739 102.027 742.665 105.954ZM762.979 97.8229C761.293 99.5085 759.263 100.351 756.887 100.351C754.512 100.351 752.482 99.5085 750.796 97.8229C749.111 96.1373 748.268 94.107 748.268 91.7318C748.268 89.3567 749.111 87.3263 750.796 85.6407C752.482 83.9551 754.512 83.1123 756.887 83.1123C759.263 83.1123 761.293 83.9551 762.979 85.6407C764.664 87.3263 765.507 89.3567 765.507 91.7318C765.507 94.107 764.664 96.1373 762.979 97.8229ZM718.128 104.178V112.798H706.635V104.178H677.17C684.435 97.4555 689.047 89.6891 690.698 72.5736H703.762L699.194 92.6857H706.635V72.5736H718.128V92.6857H723.874V104.178H718.128ZM732.195 111.844C730.605 111.844 729.246 111.288 728.115 110.178C727.005 109.047 726.449 107.687 726.449 106.098C726.449 104.508 727.005 103.157 728.115 102.046C729.246 100.916 730.605 100.351 732.195 100.351C733.785 100.351 735.135 100.916 736.246 102.046C737.376 103.157 737.942 104.508 737.942 106.098C737.942 107.687 737.376 109.047 736.246 110.178C735.135 111.288 733.785 111.844 732.195 111.844Z" fill="url(#paint0_linear_44_5)"/>
<defs>
<linearGradient id="paint0_linear_44_5" x1="-32.6709" y1="41.0672" x2="739.054" y2="160.603" gradientUnits="userSpaceOnUse">
<stop offset="0.0940888" stop-color="#D2D2D2"/>
<stop offset="0.396607" stop-color="#9B9B9B"/>
<stop offset="0.731996" stop-color="#D9D9D9"/>
<stop offset="1" stop-color="#818181"/>
</linearGradient>
</defs>
</svg>
