<svg width="778" height="114" viewBox="0 0 778 114" fill="none" xmlns="http://www.w3.org/2000/svg">
<path fill-rule="evenodd" clip-rule="evenodd" d="M221.004 0.845703H283.534L268.165 33.0244H214.166C207.516 33.0244 201.322 35.3842 195.583 40.1037C189.845 44.8233 186.278 50.5082 184.884 57.1584C183.436 63.8087 184.562 69.4936 188.263 74.2132C192.017 78.9327 197.219 81.2925 203.869 81.2925H244.733L229.21 113.471H197.031C181.478 113.471 169.358 107.974 160.669 96.9796C152.035 85.9852 149.38 72.7115 152.705 57.1584C155.977 41.6054 164.289 28.3317 177.644 17.3373C190.998 6.3429 205.451 0.845703 221.004 0.845703ZM51.7146 113.426H19.5493L36.6772 33.0119L0.251465 33.012L23.1693 0.84648L126.769 0.846424H127.27H190.396C179.437 7.87902 163.715 18.3748 155.072 33.1287H103.92L104.003 33.0119H68.8427L51.7146 113.426ZM146.304 41.1993L123.255 73.4815H69.0193L75.5475 41.1993H146.304ZM146.304 81.5521C151.386 96.861 157.251 103.525 170.354 113.583H60.4824L67.0106 81.5521H146.304ZM601.864 46.3202C597.305 67.6598 606.776 78.3296 630.277 78.3296H651.429C656.129 78.3296 658.268 79.4107 657.845 81.5729C657.281 84.1111 654.649 85.3801 649.948 85.3801H607.645L587.551 113.582H643.955C667.457 113.582 681.488 102.912 686.047 81.5729C690.465 60.6093 680.924 50.1275 657.422 50.1275H636.27C631.57 50.1275 629.502 48.8584 630.066 46.3202C630.536 44.1581 633.121 43.077 637.821 43.077H676.599L696.693 14.8749H642.667C619.165 14.8749 606.329 25.3567 601.864 46.3202ZM421.226 15.3761H394.899L355.065 98.5479H380.314L401.443 52.5064L407.978 98.5479H433.226L421.226 15.3761ZM541.341 63.8868L534.094 98.0466H510.33L528.034 14.8749H551.797L544.49 49.0347L575.56 14.8749H605.265L566.649 56.5796L587.561 98.0466H557.857L541.341 63.8868ZM521.359 15.3765H486.695C475.21 15.3765 464.536 19.4361 454.674 27.5553C444.813 35.6744 438.674 45.4768 436.258 56.9624C433.802 68.448 435.763 78.2504 442.139 86.3696C448.555 94.4887 457.506 98.5483 468.992 98.5483H504.573L509.449 74.7849H474.041C469.13 74.7849 465.289 73.0423 462.516 69.557C459.783 66.0717 458.952 61.8735 460.021 56.9624C461.051 52.0513 463.685 47.8531 467.922 44.3678C472.16 40.8825 476.735 39.1399 481.646 39.1399H516.468L521.359 15.3765ZM290.004 0.845703H322.215L302.748 41.1089H342.759L362.136 0.845703H394.688L340.494 113.583H308.284L326.885 73.3194H287.397L268.021 113.583H235.81L290.004 0.845703ZM706.692 0.845703H401.392L397.652 9.3636H700.537L706.692 0.845703ZM351.892 105.065H588.555L582.487 113.583H348.05L351.892 105.065ZM742.914 106.799C746.841 110.726 751.582 112.689 757.136 112.689C762.691 112.689 767.432 110.726 771.358 106.799C775.285 102.873 777.248 98.132 777.248 92.5773C777.248 87.0226 775.285 82.2819 771.358 78.3553C767.432 74.4287 762.691 72.4654 757.136 72.4654C751.582 72.4654 746.841 74.4287 742.914 78.3553C738.988 82.2819 737.025 87.0226 737.025 92.5773C737.025 98.132 738.988 102.873 742.914 106.799ZM763.227 98.6683C761.542 100.354 759.512 101.197 757.136 101.197C754.761 101.197 752.731 100.354 751.045 98.6683C749.36 96.9828 748.517 94.9524 748.517 92.5773C748.517 90.2022 749.36 88.1718 751.045 86.4863C752.731 84.8007 754.761 83.9579 757.136 83.9579C759.512 83.9579 761.542 84.8007 763.227 86.4863C764.913 88.1718 765.756 90.2022 765.756 92.5773C765.756 94.9524 764.913 96.9828 763.227 98.6683ZM718.377 105.024V113.643H706.884V105.024H677.419C684.684 98.3009 689.296 90.5346 690.947 73.4193H704.011L699.443 93.5312H706.884V73.4193H718.377V93.5312H724.123V105.024H718.377ZM732.444 112.689C730.854 112.689 729.495 112.134 728.364 111.023C727.254 109.893 726.698 108.533 726.698 106.943C726.698 105.353 727.254 104.003 728.364 102.892C729.495 101.762 730.854 101.197 732.444 101.197C734.034 101.197 735.384 101.762 736.495 102.892C737.625 104.003 738.191 105.353 738.191 106.943C738.191 108.533 737.625 109.893 736.495 111.023C735.384 112.134 734.034 112.689 732.444 112.689Z" fill="url(#paint0_linear_331_1385)"/>
<defs>
<linearGradient id="paint0_linear_331_1385" x1="-32.4193" y1="41.9127" x2="739.303" y2="161.448" gradientUnits="userSpaceOnUse">
<stop offset="0.0940888" stop-color="#64E3FF"/>
<stop offset="0.424221" stop-color="#BE7CFF"/>
<stop offset="0.731996" stop-color="#FFD876"/>
<stop offset="1" stop-color="#2D7EF9"/>
</linearGradient>
</defs>
</svg>
