<svg width="1448" height="1618" viewBox="0 0 1448 1618" fill="none" xmlns="http://www.w3.org/2000/svg">
<path fill-rule="evenodd" clip-rule="evenodd" d="M724 0C721.239 0 719 2.23858 719 5V62.4228C717.963 84.3317 712.933 105.925 704.793 126.226C695.611 149.124 682.154 169.93 665.188 187.456C648.223 204.981 628.082 218.884 605.916 228.368C585.31 237.186 563.328 242.025 541.061 242.663C538.267 242.743 536 245.001 536 247.797C536 250.593 538.267 252.866 541.061 252.79C564.616 252.15 587.871 247.048 609.667 237.722C633.022 227.728 654.243 213.08 672.118 194.614C689.993 176.149 704.173 154.227 713.847 130.1C715.726 125.413 717.447 120.662 719 115.855L719 310C719 310.026 719 310.053 719 310.079V564C719 588.785 713.974 613.327 704.793 636.226C695.611 659.124 682.154 679.93 665.188 697.456C648.223 714.981 628.082 728.884 605.916 738.368C585.31 747.186 563.328 752.025 541.061 752.663C538.267 752.743 536 755.001 536 757.797C536 760.593 538.267 762.866 541.061 762.79C564.616 762.15 587.871 757.048 609.667 747.722C633.022 737.728 654.243 723.08 672.118 704.614C689.993 686.149 704.173 664.227 713.847 640.1C715.734 635.393 717.454 630.621 719 625.794L719 811C719 811.026 719 811.053 719 811.079V1074C719 1098.79 713.974 1123.33 704.793 1146.23C695.611 1169.12 682.154 1189.93 665.188 1207.46C648.223 1224.98 628.082 1238.88 605.916 1248.37C585.31 1257.19 563.328 1262.03 541.061 1262.66C538.267 1262.74 536 1265 536 1267.8C536 1270.59 538.267 1272.87 541.061 1272.79C564.616 1272.15 587.871 1267.05 609.667 1257.72C633.022 1247.73 654.243 1233.08 672.118 1214.61C689.993 1196.15 704.173 1174.23 713.847 1150.1C715.734 1145.39 717.454 1140.62 719 1135.79L719 1330C719 1330.03 719 1330.05 719 1330.08V1336H719.088C719.791 1360.07 724.721 1383.82 733.653 1406.1C743.327 1430.23 757.507 1452.15 775.382 1470.61C793.257 1489.08 814.478 1503.73 837.833 1513.72C859.629 1523.05 882.884 1528.15 906.439 1528.79C909.233 1528.87 911.5 1526.59 911.5 1523.8C911.5 1521 909.233 1518.74 906.439 1518.66C884.172 1518.03 862.19 1513.19 841.584 1504.37C819.418 1494.88 799.277 1480.98 782.312 1463.46C765.346 1445.93 751.889 1425.12 742.707 1402.23C734.267 1381.18 729.593 1358.74 728.892 1336H729V874.26C730.406 878.588 731.957 882.871 733.653 887.1C743.327 911.227 757.507 933.149 775.382 951.614C793.257 970.08 814.478 984.728 837.833 994.722C859.629 1004.05 882.884 1009.15 906.439 1009.79C909.233 1009.87 911.5 1007.59 911.5 1004.8C911.5 1002 909.233 999.743 906.439 999.663C884.172 999.025 862.19 994.186 841.584 985.368C819.418 975.884 799.277 961.981 782.312 944.456C765.346 926.93 751.889 906.124 742.707 883.226C734.617 863.049 729.987 841.597 729 819.826V373.26C730.406 377.588 731.957 381.871 733.653 386.1C743.327 410.227 757.507 432.149 775.382 450.614C793.257 469.08 814.478 483.728 837.833 493.722C859.629 503.048 882.884 508.15 906.439 508.79C909.233 508.866 911.5 506.593 911.5 503.797C911.5 501.001 909.233 498.743 906.439 498.663C884.172 498.025 862.19 493.186 841.584 484.368C819.418 474.884 799.277 460.981 782.312 443.456C765.346 425.93 751.889 405.124 742.707 382.226C734.617 362.049 729.987 340.597 729 318.826V54V5C729 2.23858 726.761 0 724 0Z" fill="url(#paint0_linear_26_2)"/>
<g filter="url(#filter0_d_26_2)">
<g filter="url(#filter1_b_26_2)">
<rect y="173" width="530" height="160" rx="33.6" fill="#606060" fill-opacity="0.2"/>
<rect x="1" y="174" width="528" height="158" rx="32.6" stroke="url(#paint1_linear_26_2)" stroke-width="2"/>
</g>
<path d="M134.012 240.33C126.323 240.33 121.802 235.842 121.802 228.945C121.802 222.048 126.323 217.56 134.012 217.56C141.437 217.56 145.892 221.091 145.892 226.998V227.559H138.962V226.998C138.962 224.49 137.774 223.5 134.111 223.5C129.623 223.5 128.402 224.556 128.402 228.945C128.402 233.334 129.623 234.39 134.111 234.39C137.774 234.39 138.962 233.4 138.962 230.892V230.331H145.892V230.892C145.892 236.799 141.437 240.33 134.012 240.33ZM153.731 240H147.527V217.89H153.731V240ZM161.916 221.85H155.712V217.89H161.916V221.85ZM161.916 240H155.712V223.368H161.916V240ZM170.102 240H163.898V223.368H169.706V228.417H170.036C170.399 225.645 171.917 223.038 176.108 223.038C180.035 223.038 181.916 225.414 182.246 228.417H182.576C182.939 225.645 184.523 223.038 188.846 223.038C193.103 223.038 195.116 225.744 195.116 229.341V240H188.912V231.618C188.912 229.308 188.252 228.582 185.678 228.582C183.137 228.582 182.609 229.275 182.609 231.42V240H176.405V231.618C176.405 229.308 175.745 228.582 173.171 228.582C170.63 228.582 170.102 229.275 170.102 231.42V240ZM202.341 240.33C198.579 240.33 196.467 238.614 196.467 235.776C196.467 233.433 198.084 231.75 201.846 231.387L208.611 230.727V230.397C208.611 228.714 207.885 228.45 205.674 228.45C203.628 228.45 203.001 228.846 203.001 230.232V230.364H196.797V230.298C196.797 225.876 200.493 223.038 206.136 223.038C211.944 223.038 214.749 225.876 214.749 230.529V240H208.941V236.502H208.611C207.984 238.845 205.938 240.33 202.341 240.33ZM202.704 235.38C202.704 235.908 203.232 236.007 204.189 236.007C207.192 236.007 208.413 235.644 208.578 234.159L203.496 234.753C202.935 234.819 202.704 235.017 202.704 235.38ZM229.029 240H224.673C220.515 240 218.04 237.987 218.04 233.664V228.45H215.598V223.368H218.04V220.497H224.244V223.368H229.029V228.45H224.244V232.773C224.244 234.093 224.64 234.423 226.059 234.423H229.029V240ZM239.783 240.33C234.14 240.33 230.18 237.921 230.18 231.684C230.18 226.272 234.107 223.038 239.651 223.038C245.393 223.038 249.056 225.909 249.056 231.255C249.056 231.816 249.023 232.245 248.957 232.839H235.922C236.021 234.852 236.912 235.413 239.552 235.413C242.06 235.413 242.72 234.984 242.72 233.994V233.631H248.924V234.027C248.924 237.723 245.393 240.33 239.783 240.33ZM239.519 227.79C237.242 227.79 236.285 228.285 236.021 229.704H243.05C242.819 228.285 241.829 227.79 239.519 227.79ZM264.664 240.33C258.757 240.33 254.995 237.063 254.995 231.684C254.995 226.272 258.757 223.038 264.664 223.038C270.34 223.038 273.97 225.942 273.97 230.397V230.925H267.799V230.661C267.799 228.945 266.545 228.582 264.532 228.582C262.255 228.582 261.166 229.077 261.166 231.684C261.166 234.258 262.255 234.753 264.532 234.753C266.545 234.753 267.799 234.423 267.799 232.707V232.41H273.97V232.971C273.97 237.393 270.34 240.33 264.664 240.33ZM281.831 240H275.627V217.89H281.831V228.417H282.161C282.689 225.612 284.537 223.038 288.794 223.038C293.216 223.038 295.328 225.843 295.328 229.539V240H289.124V231.618C289.124 229.308 288.233 228.582 285.395 228.582C282.524 228.582 281.831 229.275 281.831 231.42V240ZM302.566 240.33C298.804 240.33 296.692 238.614 296.692 235.776C296.692 233.433 298.309 231.75 302.071 231.387L308.836 230.727V230.397C308.836 228.714 308.11 228.45 305.899 228.45C303.853 228.45 303.226 228.846 303.226 230.232V230.364H297.022V230.298C297.022 225.876 300.718 223.038 306.361 223.038C312.169 223.038 314.974 225.876 314.974 230.529V240H309.166V236.502H308.836C308.209 238.845 306.163 240.33 302.566 240.33ZM302.929 235.38C302.929 235.908 303.457 236.007 304.414 236.007C307.417 236.007 308.638 235.644 308.803 234.159L303.721 234.753C303.16 234.819 302.929 235.017 302.929 235.38ZM323.017 240H316.813V223.368H322.621V228.417H322.951C323.314 225.645 325.129 223.038 329.584 223.038C334.072 223.038 336.184 225.744 336.184 229.341V240H329.98V231.618C329.98 229.308 329.122 228.582 326.416 228.582C323.677 228.582 323.017 229.275 323.017 231.42V240ZM345.41 238.152C340.46 238.152 337.688 235.314 337.688 230.562C337.688 225.876 340.658 223.038 345.575 223.038C348.941 223.038 351.185 224.391 351.647 227.262H351.977V223.368H357.785V237.195C357.785 243.135 354.254 245.94 347.852 245.94C342.044 245.94 338.678 243.498 338.678 239.142H344.882C344.882 240.495 345.047 240.825 348.281 240.825C350.954 240.825 351.581 240.429 351.581 237.624V234.126H351.251C350.822 236.535 349.073 238.152 345.41 238.152ZM343.958 230.562C343.958 232.212 344.75 232.839 347.654 232.839C350.426 232.839 351.581 232.509 351.581 230.76V230.529C351.581 228.747 350.426 228.384 347.654 228.384C344.75 228.384 343.958 228.945 343.958 230.562ZM369.044 240.33C363.401 240.33 359.441 237.921 359.441 231.684C359.441 226.272 363.368 223.038 368.912 223.038C374.654 223.038 378.317 225.909 378.317 231.255C378.317 231.816 378.284 232.245 378.218 232.839H365.183C365.282 234.852 366.173 235.413 368.813 235.413C371.321 235.413 371.981 234.984 371.981 233.994V233.631H378.185V234.027C378.185 237.723 374.654 240.33 369.044 240.33ZM368.78 227.79C366.503 227.79 365.546 228.285 365.282 229.704H372.311C372.08 228.285 371.09 227.79 368.78 227.79ZM394.815 240.33C388.05 240.33 384.255 238.383 384.255 233.796C384.255 230.397 386.532 228.714 389.799 228.483V228.054C386.763 227.79 385.278 225.81 385.278 223.368C385.278 219.177 388.644 217.428 394.452 217.428H397.917V223.071H393.561C392.142 223.071 391.482 223.236 391.482 224.655C391.482 226.008 392.175 226.173 393.396 226.173H399.138V223.368H405.243V226.173H408.444V231.255H405.243V231.816C405.243 236.997 402.9 240.33 394.815 240.33ZM395.046 234.687C398.643 234.687 399.138 234.489 399.138 232.146V231.255H392.571C391.317 231.255 390.558 231.519 390.558 232.971C390.558 234.291 391.317 234.687 395.046 234.687ZM175.251 286H155.616V263.89H175.251V269.467H161.82V272.107H174.756V277.651H161.82V280.423H175.251V286ZM183.218 286H177.014V269.368H182.822V274.417H183.152C183.515 271.645 185.33 269.038 189.785 269.038C194.273 269.038 196.385 271.744 196.385 275.341V286H190.181V277.618C190.181 275.308 189.323 274.582 186.617 274.582C183.878 274.582 183.218 275.275 183.218 277.42V286ZM212.112 286H204.456L197.064 269.368H203.994L208.152 279.961H208.581L212.772 269.368H219.57L212.112 286ZM226.595 267.85H220.391V263.89H226.595V267.85ZM226.595 286H220.391V269.368H226.595V286ZM234.781 286H228.577V269.368H234.385V273.724H234.715C235.177 270.985 236.893 269.038 240.193 269.038C243.856 269.038 245.308 271.447 245.308 274.78V278.08H239.104V276.133C239.104 274.747 238.576 274.252 236.959 274.252C235.276 274.252 234.781 274.747 234.781 276.067V286ZM255.831 286.33C250.056 286.33 246.129 283.063 246.129 277.684C246.129 272.272 250.056 269.038 255.831 269.038C261.606 269.038 265.533 272.272 265.533 277.684C265.533 283.063 261.606 286.33 255.831 286.33ZM255.831 280.852C258.636 280.852 259.395 280.093 259.395 277.684C259.395 275.275 258.636 274.483 255.831 274.483C253.026 274.483 252.267 275.275 252.267 277.684C252.267 280.093 253.026 280.852 255.831 280.852ZM273.227 286H267.023V269.368H272.831V274.417H273.161C273.524 271.645 275.339 269.038 279.794 269.038C284.282 269.038 286.394 271.744 286.394 275.341V286H280.19V277.618C280.19 275.308 279.332 274.582 276.626 274.582C273.887 274.582 273.227 275.275 273.227 277.42V286ZM294.432 286H288.228V269.368H294.036V274.417H294.366C294.729 271.645 296.247 269.038 300.438 269.038C304.365 269.038 306.246 271.414 306.576 274.417H306.906C307.269 271.645 308.853 269.038 313.176 269.038C317.433 269.038 319.446 271.744 319.446 275.341V286H313.242V277.618C313.242 275.308 312.582 274.582 310.008 274.582C307.467 274.582 306.939 275.275 306.939 277.42V286H300.735V277.618C300.735 275.308 300.075 274.582 297.501 274.582C294.96 274.582 294.432 275.275 294.432 277.42V286ZM330.566 286.33C324.923 286.33 320.963 283.921 320.963 277.684C320.963 272.272 324.89 269.038 330.434 269.038C336.176 269.038 339.839 271.909 339.839 277.255C339.839 277.816 339.806 278.245 339.74 278.839H326.705C326.804 280.852 327.695 281.413 330.335 281.413C332.843 281.413 333.503 280.984 333.503 279.994V279.631H339.707V280.027C339.707 283.723 336.176 286.33 330.566 286.33ZM330.302 273.79C328.025 273.79 327.068 274.285 326.804 275.704H333.833C333.602 274.285 332.612 273.79 330.302 273.79ZM347.703 286H341.499V269.368H347.307V274.417H347.637C348 271.645 349.815 269.038 354.27 269.038C358.758 269.038 360.87 271.744 360.87 275.341V286H354.666V277.618C354.666 275.308 353.808 274.582 351.102 274.582C348.363 274.582 347.703 275.275 347.703 277.42V286ZM375.145 286H370.789C366.631 286 364.156 283.987 364.156 279.664V274.45H361.714V269.368H364.156V266.497H370.36V269.368H375.145V274.45H370.36V278.773C370.36 280.093 370.756 280.423 372.175 280.423H375.145V286Z" fill="url(#paint2_linear_26_2)"/>
</g>
<g filter="url(#filter2_d_26_2)">
<g filter="url(#filter3_b_26_2)">
<rect y="683" width="530" height="160" rx="33.6" fill="#606060" fill-opacity="0.2"/>
<rect x="1" y="684" width="528" height="158" rx="32.6" stroke="url(#paint3_linear_26_2)" stroke-width="2"/>
</g>
<path d="M129.42 774.33C121.731 774.33 117.21 769.842 117.21 762.945C117.21 756.048 121.731 751.56 129.42 751.56C136.845 751.56 141.3 755.091 141.3 760.998V761.559H134.37V760.998C134.37 758.49 133.182 757.5 129.519 757.5C125.031 757.5 123.81 758.556 123.81 762.945C123.81 767.334 125.031 768.39 129.519 768.39C133.182 768.39 134.37 767.4 134.37 764.892V764.331H141.3V764.892C141.3 770.799 136.845 774.33 129.42 774.33ZM149.139 774H142.935V757.368H148.743V761.724H149.073C149.535 758.985 151.251 757.038 154.551 757.038C158.214 757.038 159.666 759.447 159.666 762.78V766.08H153.462V764.133C153.462 762.747 152.934 762.252 151.317 762.252C149.634 762.252 149.139 762.747 149.139 764.067V774ZM167.185 755.85H160.981V751.89H167.185V755.85ZM167.185 774H160.981V757.368H167.185V774ZM175.371 774H169.167V757.368H174.975V762.417H175.305C175.668 759.645 177.186 757.038 181.377 757.038C185.304 757.038 187.185 759.414 187.515 762.417H187.845C188.208 759.645 189.792 757.038 194.115 757.038C198.372 757.038 200.385 759.744 200.385 763.341V774H194.181V765.618C194.181 763.308 193.521 762.582 190.947 762.582C188.406 762.582 187.878 763.275 187.878 765.42V774H181.674V765.618C181.674 763.308 181.014 762.582 178.44 762.582C175.899 762.582 175.371 763.275 175.371 765.42V774ZM211.504 774.33C205.861 774.33 201.901 771.921 201.901 765.684C201.901 760.272 205.828 757.038 211.372 757.038C217.114 757.038 220.777 759.909 220.777 765.255C220.777 765.816 220.744 766.245 220.678 766.839H207.643C207.742 768.852 208.633 769.413 211.273 769.413C213.781 769.413 214.441 768.984 214.441 767.994V767.631H220.645V768.027C220.645 771.723 217.114 774.33 211.504 774.33ZM211.24 761.79C208.963 761.79 208.006 762.285 207.742 763.704H214.771C214.54 762.285 213.55 761.79 211.24 761.79ZM233.25 774H227.046V751.89H239.289C244.536 751.89 247.836 754.893 247.836 760.14C247.836 765.387 244.536 768.423 239.289 768.423H233.25V774ZM238.596 757.467H233.25V762.846H238.596C240.774 762.846 241.665 762.417 241.665 760.14C241.665 757.896 240.774 757.467 238.596 757.467ZM255.357 774H249.153V757.368H254.961V761.724H255.291C255.753 758.985 257.469 757.038 260.769 757.038C264.432 757.038 265.884 759.447 265.884 762.78V766.08H259.68V764.133C259.68 762.747 259.152 762.252 257.535 762.252C255.852 762.252 255.357 762.747 255.357 764.067V774ZM276.473 774.33C270.83 774.33 266.87 771.921 266.87 765.684C266.87 760.272 270.797 757.038 276.341 757.038C282.083 757.038 285.746 759.909 285.746 765.255C285.746 765.816 285.713 766.245 285.647 766.839H272.612C272.711 768.852 273.602 769.413 276.242 769.413C278.75 769.413 279.41 768.984 279.41 767.994V767.631H285.614V768.027C285.614 771.723 282.083 774.33 276.473 774.33ZM276.209 761.79C273.932 761.79 272.975 762.285 272.711 763.704H279.74C279.509 762.285 278.519 761.79 276.209 761.79ZM301.299 774H293.643L286.251 757.368H293.181L297.339 767.961H297.768L301.959 757.368H308.757L301.299 774ZM318.851 774.33C313.208 774.33 309.248 771.921 309.248 765.684C309.248 760.272 313.175 757.038 318.719 757.038C324.461 757.038 328.124 759.909 328.124 765.255C328.124 765.816 328.091 766.245 328.025 766.839H314.99C315.089 768.852 315.98 769.413 318.62 769.413C321.128 769.413 321.788 768.984 321.788 767.994V767.631H327.992V768.027C327.992 771.723 324.461 774.33 318.851 774.33ZM318.587 761.79C316.31 761.79 315.353 762.285 315.089 763.704H322.118C321.887 762.285 320.897 761.79 318.587 761.79ZM335.988 774H329.784V757.368H335.592V762.417H335.922C336.285 759.645 338.1 757.038 342.555 757.038C347.043 757.038 349.155 759.744 349.155 763.341V774H342.951V765.618C342.951 763.308 342.093 762.582 339.387 762.582C336.648 762.582 335.988 763.275 335.988 765.42V774ZM363.43 774H359.074C354.916 774 352.441 771.987 352.441 767.664V762.45H349.999V757.368H352.441V754.497H358.645V757.368H363.43V762.45H358.645V766.773C358.645 768.093 359.041 768.423 360.46 768.423H363.43V774ZM371.115 755.85H364.911V751.89H371.115V755.85ZM371.115 774H364.911V757.368H371.115V774ZM382.304 774.33C376.529 774.33 372.602 771.063 372.602 765.684C372.602 760.272 376.529 757.038 382.304 757.038C388.079 757.038 392.006 760.272 392.006 765.684C392.006 771.063 388.079 774.33 382.304 774.33ZM382.304 768.852C385.109 768.852 385.868 768.093 385.868 765.684C385.868 763.275 385.109 762.483 382.304 762.483C379.499 762.483 378.74 763.275 378.74 765.684C378.74 768.093 379.499 768.852 382.304 768.852ZM399.7 774H393.496V757.368H399.304V762.417H399.634C399.997 759.645 401.812 757.038 406.267 757.038C410.755 757.038 412.867 759.744 412.867 763.341V774H406.663V765.618C406.663 763.308 405.805 762.582 403.099 762.582C400.36 762.582 399.7 763.275 399.7 765.42V774Z" fill="url(#paint4_linear_26_2)"/>
</g>
<g filter="url(#filter4_d_26_2)">
<g filter="url(#filter5_b_26_2)">
<rect x="918" y="939" width="530" height="160" rx="33.6" fill="#606060" fill-opacity="0.2"/>
<rect x="919" y="940" width="528" height="158" rx="32.6" stroke="url(#paint5_linear_26_2)" stroke-width="2"/>
</g>
<path d="M1031.91 983.9H1037.25V1007H1031.91V983.9ZM1021.41 1007H1016.07V983.9H1021.41V1007ZM1032.3 997.529H1021.02V993.008H1032.3V997.529ZM1051.17 1007.26C1049.14 1007.26 1047.36 1006.87 1045.82 1006.08C1044.3 1005.28 1043.12 1004.21 1042.29 1002.84C1041.45 1001.46 1041.03 999.883 1041.03 998.123C1041.03 996.341 1041.44 994.768 1042.26 993.404C1043.09 992.018 1044.22 990.94 1045.65 990.17C1047.08 989.378 1048.7 988.982 1050.51 988.982C1052.24 988.982 1053.81 989.356 1055.19 990.104C1056.6 990.83 1057.71 991.886 1058.52 993.272C1059.34 994.636 1059.75 996.275 1059.75 998.189C1059.75 998.387 1059.73 998.618 1059.71 998.882C1059.69 999.124 1059.67 999.355 1059.65 999.575H1045.23V996.572H1056.94L1054.96 997.463C1054.96 996.539 1054.77 995.736 1054.4 995.054C1054.03 994.372 1053.51 993.844 1052.85 993.47C1052.19 993.074 1051.42 992.876 1050.54 992.876C1049.66 992.876 1048.88 993.074 1048.2 993.47C1047.54 993.844 1047.02 994.383 1046.64 995.087C1046.27 995.769 1046.08 996.583 1046.08 997.529V998.321C1046.08 999.289 1046.29 1000.15 1046.71 1000.89C1047.15 1001.62 1047.76 1002.18 1048.53 1002.58C1049.32 1002.95 1050.24 1003.14 1051.3 1003.14C1052.24 1003.14 1053.07 1003 1053.77 1002.71C1054.5 1002.42 1055.16 1001.99 1055.75 1001.42L1058.49 1004.39C1057.68 1005.32 1056.65 1006.03 1055.42 1006.54C1054.19 1007.02 1052.77 1007.26 1051.17 1007.26ZM1073.58 1007V1003.53L1073.25 1002.78V996.572C1073.25 995.472 1072.91 994.614 1072.23 993.998C1071.57 993.382 1070.54 993.074 1069.16 993.074C1068.21 993.074 1067.28 993.228 1066.35 993.536C1065.45 993.822 1064.68 994.218 1064.04 994.724L1062.19 991.127C1063.16 990.445 1064.33 989.917 1065.69 989.543C1067.06 989.169 1068.44 988.982 1069.85 988.982C1072.56 988.982 1074.66 989.62 1076.15 990.896C1077.65 992.172 1078.4 994.163 1078.4 996.869V1007H1073.58ZM1068.17 1007.26C1066.78 1007.26 1065.59 1007.03 1064.6 1006.57C1063.61 1006.09 1062.85 1005.44 1062.33 1004.62C1061.8 1003.81 1061.53 1002.9 1061.53 1001.88C1061.53 1000.83 1061.79 999.905 1062.29 999.113C1062.82 998.321 1063.65 997.705 1064.77 997.265C1065.89 996.803 1067.35 996.572 1069.16 996.572H1073.88V999.575H1069.72C1068.51 999.575 1067.67 999.773 1067.21 1000.17C1066.77 1000.56 1066.55 1001.06 1066.55 1001.65C1066.55 1002.31 1066.8 1002.84 1067.31 1003.24C1067.84 1003.61 1068.55 1003.8 1069.45 1003.8C1070.31 1003.8 1071.08 1003.6 1071.76 1003.2C1072.45 1002.79 1072.94 1002.18 1073.25 1001.39L1074.04 1003.77C1073.67 1004.91 1072.98 1005.78 1071.99 1006.37C1071 1006.97 1069.73 1007.26 1068.17 1007.26ZM1083.06 1007V982.514H1088.2V1007H1083.06ZM1101.56 1007.26C1099.47 1007.26 1097.85 1006.74 1096.68 1005.68C1095.51 1004.6 1094.93 1003.01 1094.93 1000.89V985.319H1100.08V1000.83C1100.08 1001.58 1100.28 1002.16 1100.67 1002.58C1101.07 1002.97 1101.61 1003.17 1102.29 1003.17C1103.1 1003.17 1103.8 1002.95 1104.37 1002.51L1105.75 1006.14C1105.23 1006.52 1104.59 1006.8 1103.84 1007C1103.11 1007.18 1102.36 1007.26 1101.56 1007.26ZM1092.19 993.602V989.642H1104.5V993.602H1092.19ZM1119.44 988.982C1120.84 988.982 1122.1 989.268 1123.2 989.84C1124.32 990.39 1125.2 991.248 1125.84 992.414C1126.48 993.558 1126.79 995.032 1126.79 996.836V1007H1121.65V997.628C1121.65 996.198 1121.33 995.142 1120.69 994.46C1120.07 993.778 1119.19 993.437 1118.05 993.437C1117.24 993.437 1116.5 993.613 1115.84 993.965C1115.2 994.295 1114.69 994.812 1114.32 995.516C1113.97 996.22 1113.79 997.122 1113.79 998.222V1007H1108.64V982.514H1113.79V994.163L1112.64 992.678C1113.28 991.49 1114.19 990.577 1115.38 989.939C1116.56 989.301 1117.92 988.982 1119.44 988.982ZM1140.17 1007.26C1138.26 1007.26 1136.55 1006.88 1135.05 1006.11C1133.56 1005.32 1132.38 1004.23 1131.52 1002.84C1130.69 1001.46 1130.27 999.883 1130.27 998.123C1130.27 996.341 1130.69 994.768 1131.52 993.404C1132.38 992.018 1133.56 990.94 1135.05 990.17C1136.55 989.378 1138.26 988.982 1140.17 988.982C1142.04 988.982 1143.67 989.378 1145.05 990.17C1146.44 990.94 1147.46 992.051 1148.12 993.503L1144.13 995.648C1143.67 994.812 1143.08 994.196 1142.38 993.8C1141.7 993.404 1140.95 993.206 1140.14 993.206C1139.26 993.206 1138.46 993.404 1137.76 993.8C1137.06 994.196 1136.5 994.757 1136.08 995.483C1135.68 996.209 1135.48 997.089 1135.48 998.123C1135.48 999.157 1135.68 1000.04 1136.08 1000.76C1136.5 1001.49 1137.06 1002.05 1137.76 1002.45C1138.46 1002.84 1139.26 1003.04 1140.14 1003.04C1140.95 1003.04 1141.7 1002.85 1142.38 1002.48C1143.08 1002.08 1143.67 1001.46 1144.13 1000.6L1148.12 1002.78C1147.46 1004.21 1146.44 1005.32 1145.05 1006.11C1143.67 1006.88 1142.04 1007.26 1140.17 1007.26ZM1161.98 1007V1003.53L1161.65 1002.78V996.572C1161.65 995.472 1161.31 994.614 1160.62 993.998C1159.96 993.382 1158.94 993.074 1157.55 993.074C1156.61 993.074 1155.67 993.228 1154.75 993.536C1153.85 993.822 1153.08 994.218 1152.44 994.724L1150.59 991.127C1151.56 990.445 1152.73 989.917 1154.09 989.543C1155.45 989.169 1156.84 988.982 1158.25 988.982C1160.95 988.982 1163.05 989.62 1164.55 990.896C1166.05 992.172 1166.79 994.163 1166.79 996.869V1007H1161.98ZM1156.56 1007.26C1155.18 1007.26 1153.99 1007.03 1153 1006.57C1152.01 1006.09 1151.25 1005.44 1150.72 1004.62C1150.2 1003.81 1149.93 1002.9 1149.93 1001.88C1149.93 1000.83 1150.18 999.905 1150.69 999.113C1151.22 998.321 1152.04 997.705 1153.17 997.265C1154.29 996.803 1155.75 996.572 1157.55 996.572H1162.27V999.575H1158.12C1156.91 999.575 1156.07 999.773 1155.61 1000.17C1155.17 1000.56 1154.95 1001.06 1154.95 1001.65C1154.95 1002.31 1155.2 1002.84 1155.71 1003.24C1156.23 1003.61 1156.95 1003.8 1157.85 1003.8C1158.71 1003.8 1159.48 1003.6 1160.16 1003.2C1160.84 1002.79 1161.34 1002.18 1161.65 1001.39L1162.44 1003.77C1162.06 1004.91 1161.38 1005.78 1160.39 1006.37C1159.4 1006.97 1158.13 1007.26 1156.56 1007.26ZM1171.45 1007V989.246H1176.37V994.262L1175.68 992.81C1176.21 991.556 1177.05 990.61 1178.22 989.972C1179.38 989.312 1180.8 988.982 1182.48 988.982V993.734C1182.26 993.712 1182.06 993.701 1181.88 993.701C1181.71 993.679 1181.52 993.668 1181.32 993.668C1179.91 993.668 1178.77 994.075 1177.89 994.889C1177.03 995.681 1176.6 996.924 1176.6 998.618V1007H1171.45ZM1194.22 1007.26C1192.19 1007.26 1190.41 1006.87 1188.87 1006.08C1187.35 1005.28 1186.18 1004.21 1185.34 1002.84C1184.51 1001.46 1184.09 999.883 1184.09 998.123C1184.09 996.341 1184.49 994.768 1185.31 993.404C1186.14 992.018 1187.28 990.94 1188.71 990.17C1190.14 989.378 1191.75 988.982 1193.56 988.982C1195.3 988.982 1196.86 989.356 1198.24 990.104C1199.65 990.83 1200.76 991.886 1201.58 993.272C1202.39 994.636 1202.8 996.275 1202.8 998.189C1202.8 998.387 1202.79 998.618 1202.77 998.882C1202.74 999.124 1202.72 999.355 1202.7 999.575H1188.28V996.572H1199.99L1198.01 997.463C1198.01 996.539 1197.83 995.736 1197.45 995.054C1197.08 994.372 1196.56 993.844 1195.9 993.47C1195.24 993.074 1194.47 992.876 1193.59 992.876C1192.71 992.876 1191.93 993.074 1191.25 993.47C1190.59 993.844 1190.07 994.383 1189.7 995.087C1189.32 995.769 1189.14 996.583 1189.14 997.529V998.321C1189.14 999.289 1189.35 1000.15 1189.76 1000.89C1190.2 1001.62 1190.81 1002.18 1191.58 1002.58C1192.37 1002.95 1193.29 1003.14 1194.35 1003.14C1195.3 1003.14 1196.12 1003 1196.83 1002.71C1197.55 1002.42 1198.21 1001.99 1198.81 1001.42L1201.54 1004.39C1200.73 1005.32 1199.71 1006.03 1198.48 1006.54C1197.24 1007.02 1195.82 1007.26 1194.22 1007.26ZM1202.76 1010.3L1213.65 979.214H1218.24L1207.35 1010.3H1202.76ZM1219.51 1007V983.9H1223.93L1233.77 1000.2H1231.42L1241.09 983.9H1245.48L1245.55 1007H1240.53L1240.5 991.589H1241.42L1233.7 1004.56H1231.29L1223.41 991.589H1224.53V1007H1219.51ZM1259.48 1007.26C1257.45 1007.26 1255.67 1006.87 1254.13 1006.08C1252.61 1005.28 1251.44 1004.21 1250.6 1002.84C1249.76 1001.46 1249.35 999.883 1249.35 998.123C1249.35 996.341 1249.75 994.768 1250.57 993.404C1251.4 992.018 1252.54 990.94 1253.97 990.17C1255.4 989.378 1257.01 988.982 1258.82 988.982C1260.56 988.982 1262.12 989.356 1263.5 990.104C1264.91 990.83 1266.02 991.886 1266.84 993.272C1267.65 994.636 1268.06 996.275 1268.06 998.189C1268.06 998.387 1268.05 998.618 1268.02 998.882C1268 999.124 1267.98 999.355 1267.96 999.575H1253.54V996.572H1265.25L1263.27 997.463C1263.27 996.539 1263.09 995.736 1262.71 995.054C1262.34 994.372 1261.82 993.844 1261.16 993.47C1260.5 993.074 1259.73 992.876 1258.85 992.876C1257.97 992.876 1257.19 993.074 1256.51 993.47C1255.85 993.844 1255.33 994.383 1254.96 995.087C1254.58 995.769 1254.4 996.583 1254.4 997.529V998.321C1254.4 999.289 1254.6 1000.15 1255.02 1000.89C1255.46 1001.62 1256.07 1002.18 1256.84 1002.58C1257.63 1002.95 1258.55 1003.14 1259.61 1003.14C1260.56 1003.14 1261.38 1003 1262.08 1002.71C1262.81 1002.42 1263.47 1001.99 1264.06 1001.42L1266.8 1004.39C1265.99 1005.32 1264.97 1006.03 1263.73 1006.54C1262.5 1007.02 1261.08 1007.26 1259.48 1007.26ZM1279.11 1007.26C1277.44 1007.26 1275.93 1006.89 1274.59 1006.14C1273.24 1005.37 1272.18 1004.3 1271.39 1002.94C1270.62 1001.58 1270.23 999.971 1270.23 998.123C1270.23 996.253 1270.62 994.636 1271.39 993.272C1272.18 991.908 1273.24 990.852 1274.59 990.104C1275.93 989.356 1277.44 988.982 1279.11 988.982C1280.6 988.982 1281.91 989.312 1283.03 989.972C1284.16 990.632 1285.03 991.633 1285.64 992.975C1286.26 994.317 1286.57 996.033 1286.57 998.123C1286.57 1000.19 1286.27 1001.91 1285.67 1003.27C1285.08 1004.61 1284.22 1005.61 1283.1 1006.27C1282 1006.93 1280.67 1007.26 1279.11 1007.26ZM1280 1003.04C1280.83 1003.04 1281.59 1002.84 1282.28 1002.45C1282.96 1002.05 1283.5 1001.49 1283.89 1000.76C1284.31 1000.01 1284.52 999.135 1284.52 998.123C1284.52 997.089 1284.31 996.209 1283.89 995.483C1283.5 994.757 1282.96 994.196 1282.28 993.8C1281.59 993.404 1280.83 993.206 1280 993.206C1279.14 993.206 1278.37 993.404 1277.69 993.8C1277.01 994.196 1276.46 994.757 1276.04 995.483C1275.64 996.209 1275.44 997.089 1275.44 998.123C1275.44 999.135 1275.64 1000.01 1276.04 1000.76C1276.46 1001.49 1277.01 1002.05 1277.69 1002.45C1278.37 1002.84 1279.14 1003.04 1280 1003.04ZM1284.65 1007V1003.37L1284.75 998.09L1284.42 992.843V982.514H1289.57V1007H1284.65ZM1294.33 1007V989.246H1299.48V1007H1294.33ZM1296.91 986.771C1295.96 986.771 1295.19 986.496 1294.6 985.946C1294 985.396 1293.71 984.714 1293.71 983.9C1293.71 983.086 1294 982.404 1294.6 981.854C1295.19 981.304 1295.96 981.029 1296.91 981.029C1297.85 981.029 1298.62 981.293 1299.22 981.821C1299.81 982.327 1300.11 982.987 1300.11 983.801C1300.11 984.659 1299.81 985.374 1299.22 985.946C1298.65 986.496 1297.88 986.771 1296.91 986.771ZM1312.84 1007.26C1310.93 1007.26 1309.22 1006.88 1307.72 1006.11C1306.23 1005.32 1305.05 1004.23 1304.19 1002.84C1303.36 1001.46 1302.94 999.883 1302.94 998.123C1302.94 996.341 1303.36 994.768 1304.19 993.404C1305.05 992.018 1306.23 990.94 1307.72 990.17C1309.22 989.378 1310.93 988.982 1312.84 988.982C1314.71 988.982 1316.34 989.378 1317.72 990.17C1319.11 990.94 1320.13 992.051 1320.79 993.503L1316.8 995.648C1316.34 994.812 1315.75 994.196 1315.05 993.8C1314.37 993.404 1313.62 993.206 1312.81 993.206C1311.93 993.206 1311.13 993.404 1310.43 993.8C1309.73 994.196 1309.17 994.757 1308.75 995.483C1308.35 996.209 1308.15 997.089 1308.15 998.123C1308.15 999.157 1308.35 1000.04 1308.75 1000.76C1309.17 1001.49 1309.73 1002.05 1310.43 1002.45C1311.13 1002.84 1311.93 1003.04 1312.81 1003.04C1313.62 1003.04 1314.37 1002.85 1315.05 1002.48C1315.75 1002.08 1316.34 1001.46 1316.8 1000.6L1320.79 1002.78C1320.13 1004.21 1319.11 1005.32 1317.72 1006.11C1316.34 1006.88 1314.71 1007.26 1312.84 1007.26ZM1334.65 1007V1003.53L1334.32 1002.78V996.572C1334.32 995.472 1333.98 994.614 1333.29 993.998C1332.63 993.382 1331.61 993.074 1330.22 993.074C1329.28 993.074 1328.34 993.228 1327.42 993.536C1326.52 993.822 1325.75 994.218 1325.11 994.724L1323.26 991.127C1324.23 990.445 1325.4 989.917 1326.76 989.543C1328.12 989.169 1329.51 988.982 1330.92 988.982C1333.62 988.982 1335.72 989.62 1337.22 990.896C1338.72 992.172 1339.46 994.163 1339.46 996.869V1007H1334.65ZM1329.23 1007.26C1327.85 1007.26 1326.66 1007.03 1325.67 1006.57C1324.68 1006.09 1323.92 1005.44 1323.39 1004.62C1322.87 1003.81 1322.6 1002.9 1322.6 1001.88C1322.6 1000.83 1322.85 999.905 1323.36 999.113C1323.89 998.321 1324.71 997.705 1325.84 997.265C1326.96 996.803 1328.42 996.572 1330.22 996.572H1334.94V999.575H1330.79C1329.58 999.575 1328.74 999.773 1328.28 1000.17C1327.84 1000.56 1327.62 1001.06 1327.62 1001.65C1327.62 1002.31 1327.87 1002.84 1328.38 1003.24C1328.9 1003.61 1329.62 1003.8 1330.52 1003.8C1331.38 1003.8 1332.15 1003.6 1332.83 1003.2C1333.51 1002.79 1334.01 1002.18 1334.32 1001.39L1335.11 1003.77C1334.73 1004.91 1334.05 1005.78 1333.06 1006.37C1332.07 1006.97 1330.8 1007.26 1329.23 1007.26ZM1344.12 1007V982.514H1349.27V1007H1344.12ZM1092.27 1053V1029.9H1097.61V1053H1092.27ZM1113.52 1034.98C1114.93 1034.98 1116.18 1035.27 1117.28 1035.84C1118.41 1036.39 1119.29 1037.25 1119.92 1038.41C1120.56 1039.56 1120.88 1041.03 1120.88 1042.84V1053H1115.73V1043.63C1115.73 1042.2 1115.41 1041.14 1114.78 1040.46C1114.16 1039.78 1113.28 1039.44 1112.14 1039.44C1111.32 1039.44 1110.58 1039.61 1109.92 1039.96C1109.29 1040.29 1108.78 1040.81 1108.41 1041.52C1108.05 1042.22 1107.88 1043.12 1107.88 1044.22V1053H1102.73V1035.25H1107.65V1040.16L1106.72 1038.68C1107.36 1037.49 1108.27 1036.58 1109.46 1035.94C1110.65 1035.3 1112 1034.98 1113.52 1034.98ZM1136.34 1034.98C1137.75 1034.98 1139 1035.27 1140.1 1035.84C1141.22 1036.39 1142.1 1037.25 1142.74 1038.41C1143.38 1039.56 1143.7 1041.03 1143.7 1042.84V1053H1138.55V1043.63C1138.55 1042.2 1138.23 1041.14 1137.59 1040.46C1136.98 1039.78 1136.1 1039.44 1134.95 1039.44C1134.14 1039.44 1133.4 1039.61 1132.74 1039.96C1132.1 1040.29 1131.6 1040.81 1131.22 1041.52C1130.87 1042.22 1130.69 1043.12 1130.69 1044.22V1053H1125.55V1035.25H1130.46V1040.16L1129.54 1038.68C1130.18 1037.49 1131.09 1036.58 1132.28 1035.94C1133.47 1035.3 1134.82 1034.98 1136.34 1034.98ZM1156.94 1053.26C1155.05 1053.26 1153.37 1052.87 1151.89 1052.08C1150.44 1051.28 1149.28 1050.21 1148.43 1048.84C1147.59 1047.46 1147.17 1045.88 1147.17 1044.12C1147.17 1042.34 1147.59 1040.77 1148.43 1039.4C1149.28 1038.02 1150.44 1036.94 1151.89 1036.17C1153.37 1035.38 1155.05 1034.98 1156.94 1034.98C1158.81 1034.98 1160.48 1035.38 1161.96 1036.17C1163.43 1036.94 1164.59 1038.01 1165.42 1039.37C1166.26 1040.73 1166.68 1042.32 1166.68 1044.12C1166.68 1045.88 1166.26 1047.46 1165.42 1048.84C1164.59 1050.21 1163.43 1051.28 1161.96 1052.08C1160.48 1052.87 1158.81 1053.26 1156.94 1053.26ZM1156.94 1049.04C1157.8 1049.04 1158.57 1048.84 1159.25 1048.45C1159.93 1048.05 1160.47 1047.49 1160.87 1046.76C1161.26 1046.01 1161.46 1045.13 1161.46 1044.12C1161.46 1043.09 1161.26 1042.21 1160.87 1041.48C1160.47 1040.76 1159.93 1040.2 1159.25 1039.8C1158.57 1039.4 1157.8 1039.21 1156.94 1039.21C1156.08 1039.21 1155.31 1039.4 1154.63 1039.8C1153.95 1040.2 1153.4 1040.76 1152.98 1041.48C1152.58 1042.21 1152.39 1043.09 1152.39 1044.12C1152.39 1045.13 1152.58 1046.01 1152.98 1046.76C1153.4 1047.49 1153.95 1048.05 1154.63 1048.45C1155.31 1048.84 1156.08 1049.04 1156.94 1049.04ZM1174.45 1053L1166.99 1035.25H1172.31L1178.51 1050.52H1175.87L1182.3 1035.25H1187.25L1179.76 1053H1174.45ZM1199.67 1053V1049.53L1199.34 1048.78V1042.57C1199.34 1041.47 1198.99 1040.61 1198.31 1040C1197.65 1039.38 1196.63 1039.07 1195.24 1039.07C1194.3 1039.07 1193.36 1039.23 1192.44 1039.54C1191.54 1039.82 1190.77 1040.22 1190.13 1040.72L1188.28 1037.13C1189.25 1036.44 1190.41 1035.92 1191.78 1035.54C1193.14 1035.17 1194.53 1034.98 1195.94 1034.98C1198.64 1034.98 1200.74 1035.62 1202.24 1036.9C1203.74 1038.17 1204.48 1040.16 1204.48 1042.87V1053H1199.67ZM1194.25 1053.26C1192.87 1053.26 1191.68 1053.03 1190.69 1052.57C1189.7 1052.09 1188.94 1051.44 1188.41 1050.62C1187.88 1049.81 1187.62 1048.9 1187.62 1047.88C1187.62 1046.83 1187.87 1045.9 1188.38 1045.11C1188.91 1044.32 1189.73 1043.7 1190.85 1043.26C1191.98 1042.8 1193.44 1042.57 1195.24 1042.57H1199.96V1045.57H1195.8C1194.59 1045.57 1193.76 1045.77 1193.3 1046.17C1192.86 1046.56 1192.64 1047.06 1192.64 1047.65C1192.64 1048.31 1192.89 1048.84 1193.4 1049.24C1193.92 1049.61 1194.64 1049.8 1195.54 1049.8C1196.4 1049.8 1197.17 1049.6 1197.85 1049.2C1198.53 1048.79 1199.03 1048.18 1199.34 1047.39L1200.13 1049.77C1199.75 1050.91 1199.07 1051.78 1198.08 1052.37C1197.09 1052.97 1195.82 1053.26 1194.25 1053.26ZM1216.4 1053.26C1214.31 1053.26 1212.68 1052.74 1211.52 1051.68C1210.35 1050.6 1209.77 1049.01 1209.77 1046.89V1031.32H1214.92V1046.83C1214.92 1047.58 1215.12 1048.16 1215.51 1048.58C1215.91 1048.97 1216.45 1049.17 1217.13 1049.17C1217.94 1049.17 1218.64 1048.95 1219.21 1048.51L1220.59 1052.14C1220.07 1052.52 1219.43 1052.8 1218.68 1053C1217.95 1053.18 1217.19 1053.26 1216.4 1053.26ZM1207.03 1039.6V1035.64H1219.34V1039.6H1207.03ZM1223.48 1053V1035.25H1228.63V1053H1223.48ZM1226.06 1032.77C1225.11 1032.77 1224.34 1032.5 1223.75 1031.95C1223.15 1031.4 1222.86 1030.71 1222.86 1029.9C1222.86 1029.09 1223.15 1028.4 1223.75 1027.85C1224.34 1027.3 1225.11 1027.03 1226.06 1027.03C1227 1027.03 1227.77 1027.29 1228.37 1027.82C1228.96 1028.33 1229.26 1028.99 1229.26 1029.8C1229.26 1030.66 1228.96 1031.37 1228.37 1031.95C1227.8 1032.5 1227.03 1032.77 1226.06 1032.77ZM1241.86 1053.26C1239.97 1053.26 1238.28 1052.87 1236.81 1052.08C1235.36 1051.28 1234.2 1050.21 1233.34 1048.84C1232.51 1047.46 1232.09 1045.88 1232.09 1044.12C1232.09 1042.34 1232.51 1040.77 1233.34 1039.4C1234.2 1038.02 1235.36 1036.94 1236.81 1036.17C1238.28 1035.38 1239.97 1034.98 1241.86 1034.98C1243.73 1034.98 1245.4 1035.38 1246.87 1036.17C1248.35 1036.94 1249.5 1038.01 1250.34 1039.37C1251.17 1040.73 1251.59 1042.32 1251.59 1044.12C1251.59 1045.88 1251.17 1047.46 1250.34 1048.84C1249.5 1050.21 1248.35 1051.28 1246.87 1052.08C1245.4 1052.87 1243.73 1053.26 1241.86 1053.26ZM1241.86 1049.04C1242.72 1049.04 1243.49 1048.84 1244.17 1048.45C1244.85 1048.05 1245.39 1047.49 1245.78 1046.76C1246.18 1046.01 1246.38 1045.13 1246.38 1044.12C1246.38 1043.09 1246.18 1042.21 1245.78 1041.48C1245.39 1040.76 1244.85 1040.2 1244.17 1039.8C1243.49 1039.4 1242.72 1039.21 1241.86 1039.21C1241 1039.21 1240.23 1039.4 1239.55 1039.8C1238.87 1040.2 1238.32 1040.76 1237.9 1041.48C1237.5 1042.21 1237.3 1043.09 1237.3 1044.12C1237.3 1045.13 1237.5 1046.01 1237.9 1046.76C1238.32 1047.49 1238.87 1048.05 1239.55 1048.45C1240.23 1048.84 1241 1049.04 1241.86 1049.04ZM1265.82 1034.98C1267.23 1034.98 1268.49 1035.27 1269.59 1035.84C1270.71 1036.39 1271.59 1037.25 1272.23 1038.41C1272.86 1039.56 1273.18 1041.03 1273.18 1042.84V1053H1268.04V1043.63C1268.04 1042.2 1267.72 1041.14 1267.08 1040.46C1266.46 1039.78 1265.58 1039.44 1264.44 1039.44C1263.62 1039.44 1262.89 1039.61 1262.23 1039.96C1261.59 1040.29 1261.08 1040.81 1260.71 1041.52C1260.36 1042.22 1260.18 1043.12 1260.18 1044.22V1053H1255.03V1035.25H1259.95V1040.16L1259.03 1038.68C1259.66 1037.49 1260.58 1036.58 1261.77 1035.94C1262.95 1035.3 1264.31 1034.98 1265.82 1034.98Z" fill="url(#paint6_linear_26_2)"/>
</g>
<g filter="url(#filter6_d_26_2)">
<g filter="url(#filter7_b_26_2)">
<rect y="1193" width="530" height="160" rx="33.6" fill="#606060" fill-opacity="0.2"/>
<rect x="1" y="1194" width="528" height="158" rx="32.6" stroke="url(#paint7_linear_26_2)" stroke-width="2"/>
</g>
<path d="M101.377 1260H95.1726V1237.89H101.377V1260ZM109.562 1260H103.358V1243.37H109.166V1248.42H109.496C109.859 1245.64 111.674 1243.04 116.129 1243.04C120.617 1243.04 122.729 1245.74 122.729 1249.34V1260H116.525V1251.62C116.525 1249.31 115.667 1248.58 112.961 1248.58C110.222 1248.58 109.562 1249.27 109.562 1251.42V1260ZM132.12 1260.33C127.038 1260.33 124.233 1257.06 124.233 1251.68C124.233 1246.27 126.972 1243.04 131.856 1243.04C135.783 1243.04 137.631 1244.89 138.126 1247.66H138.456V1237.89H144.66V1260H138.852V1255.51H138.522C137.994 1258.81 136.014 1260.33 132.12 1260.33ZM130.503 1251.68C130.503 1253.89 131.493 1254.65 134.364 1254.65C137.136 1254.65 138.456 1254.13 138.456 1251.72V1251.49C138.456 1249.14 137.136 1248.68 134.364 1248.68C131.493 1248.68 130.503 1249.47 130.503 1251.68ZM153.469 1260.33C148.816 1260.33 146.638 1257.62 146.638 1254.03V1243.37H152.842V1251.75C152.842 1254.06 153.733 1254.79 156.571 1254.79C159.442 1254.79 160.135 1254.09 160.135 1251.95V1243.37H166.339V1260H160.531V1254.95H160.201C159.838 1257.72 157.99 1260.33 153.469 1260.33ZM177.141 1260.33C171.267 1260.33 168.132 1258.05 168.132 1254.22V1254.09H174.336V1254.42C174.336 1255.35 174.93 1255.45 177.174 1255.45C179.319 1255.45 179.649 1255.21 179.649 1254.65C179.649 1254.13 179.385 1253.99 177.834 1253.83L173.016 1253.3C169.584 1252.94 167.736 1251.32 167.736 1248.52C167.736 1245.58 170.079 1243.04 176.316 1243.04C182.091 1243.04 185.16 1245.12 185.16 1249.21V1249.34H178.956V1249.14C178.956 1248.28 178.626 1247.89 176.118 1247.89C174.105 1247.89 173.841 1248.15 173.841 1248.78C173.841 1249.24 174.105 1249.47 176.052 1249.67L179.352 1250.03C184.203 1250.56 185.754 1252.18 185.754 1254.98C185.754 1258.09 182.652 1260.33 177.141 1260.33ZM199.685 1260H195.329C191.171 1260 188.696 1257.99 188.696 1253.66V1248.45H186.254V1243.37H188.696V1240.5H194.9V1243.37H199.685V1248.45H194.9V1252.77C194.9 1254.09 195.296 1254.42 196.715 1254.42H199.685V1260ZM207.37 1260H201.166V1243.37H206.974V1247.72H207.304C207.766 1244.98 209.482 1243.04 212.782 1243.04C216.445 1243.04 217.897 1245.45 217.897 1248.78V1252.08H211.693V1250.13C211.693 1248.75 211.165 1248.25 209.548 1248.25C207.865 1248.25 207.37 1248.75 207.37 1250.07V1260ZM225.417 1241.85H219.213V1237.89H225.417V1241.85ZM225.417 1260H219.213V1243.37H225.417V1260ZM232.777 1260.33C229.015 1260.33 226.903 1258.61 226.903 1255.78C226.903 1253.43 228.52 1251.75 232.282 1251.39L239.047 1250.73V1250.4C239.047 1248.71 238.321 1248.45 236.11 1248.45C234.064 1248.45 233.437 1248.85 233.437 1250.23V1250.36H227.233V1250.3C227.233 1245.88 230.929 1243.04 236.572 1243.04C242.38 1243.04 245.185 1245.88 245.185 1250.53V1260H239.377V1256.5H239.047C238.42 1258.84 236.374 1260.33 232.777 1260.33ZM233.14 1255.38C233.14 1255.91 233.668 1256.01 234.625 1256.01C237.628 1256.01 238.849 1255.64 239.014 1254.16L233.932 1254.75C233.371 1254.82 233.14 1255.02 233.14 1255.38ZM253.228 1260H247.024V1237.89H253.228V1260ZM269.806 1260.33C266.044 1260.33 263.932 1258.61 263.932 1255.78C263.932 1253.43 265.549 1251.75 269.311 1251.39L276.076 1250.73V1250.4C276.076 1248.71 275.35 1248.45 273.139 1248.45C271.093 1248.45 270.466 1248.85 270.466 1250.23V1250.36H264.262V1250.3C264.262 1245.88 267.958 1243.04 273.601 1243.04C279.409 1243.04 282.214 1245.88 282.214 1250.53V1260H276.406V1256.5H276.076C275.449 1258.84 273.403 1260.33 269.806 1260.33ZM270.169 1255.38C270.169 1255.91 270.697 1256.01 271.654 1256.01C274.657 1256.01 275.878 1255.64 276.043 1254.16L270.961 1254.75C270.4 1254.82 270.169 1255.02 270.169 1255.38ZM290.257 1260H284.053V1243.37H289.861V1248.42H290.191C290.554 1245.64 292.369 1243.04 296.824 1243.04C301.312 1243.04 303.424 1245.74 303.424 1249.34V1260H297.22V1251.62C297.22 1249.31 296.362 1248.58 293.656 1248.58C290.917 1248.58 290.257 1249.27 290.257 1251.42V1260ZM312.815 1260.33C307.733 1260.33 304.928 1257.06 304.928 1251.68C304.928 1246.27 307.667 1243.04 312.551 1243.04C316.478 1243.04 318.326 1244.89 318.821 1247.66H319.151V1237.89H325.355V1260H319.547V1255.51H319.217C318.689 1258.81 316.709 1260.33 312.815 1260.33ZM311.198 1251.68C311.198 1253.89 312.188 1254.65 315.059 1254.65C317.831 1254.65 319.151 1254.13 319.151 1251.72V1251.49C319.151 1249.14 317.831 1248.68 315.059 1248.68C312.188 1248.68 311.198 1249.47 311.198 1251.68ZM347.275 1260.33C340.51 1260.33 336.385 1257.92 336.385 1252.31V1252.11H342.589V1252.81C342.589 1254.29 343.117 1254.69 347.275 1254.69C351.037 1254.69 351.433 1254.39 351.433 1253.4C351.433 1252.61 351.004 1252.28 349.189 1252.05L342.259 1251.12C338.134 1250.56 336.055 1248.35 336.055 1244.79C336.055 1241.26 338.794 1237.56 346.78 1237.56C353.809 1237.56 357.175 1240.63 357.175 1245.58V1245.78H350.971V1245.28C350.971 1243.7 350.278 1243.17 346.12 1243.17C342.952 1243.17 342.259 1243.6 342.259 1244.56C342.259 1245.25 342.655 1245.58 343.843 1245.74L350.773 1246.77C356.185 1247.56 357.637 1250.33 357.637 1253.17C357.637 1256.96 354.733 1260.33 347.275 1260.33ZM368.315 1260.33C362.54 1260.33 358.613 1257.06 358.613 1251.68C358.613 1246.27 362.54 1243.04 368.315 1243.04C374.09 1243.04 378.017 1246.27 378.017 1251.68C378.017 1257.06 374.09 1260.33 368.315 1260.33ZM368.315 1254.85C371.12 1254.85 371.879 1254.09 371.879 1251.68C371.879 1249.27 371.12 1248.48 368.315 1248.48C365.51 1248.48 364.751 1249.27 364.751 1251.68C364.751 1254.09 365.51 1254.85 368.315 1254.85ZM388.847 1260.33C382.94 1260.33 379.178 1257.06 379.178 1251.68C379.178 1246.27 382.94 1243.04 388.847 1243.04C394.523 1243.04 398.153 1245.94 398.153 1250.4V1250.92H391.982V1250.66C391.982 1248.94 390.728 1248.58 388.715 1248.58C386.438 1248.58 385.349 1249.08 385.349 1251.68C385.349 1254.26 386.438 1254.75 388.715 1254.75C390.728 1254.75 391.982 1254.42 391.982 1252.71V1252.41H398.153V1252.97C398.153 1257.39 394.523 1260.33 388.847 1260.33ZM406.014 1241.85H399.81V1237.89H406.014V1241.85ZM406.014 1260H399.81V1243.37H406.014V1260ZM413.375 1260.33C409.613 1260.33 407.501 1258.61 407.501 1255.78C407.501 1253.43 409.118 1251.75 412.88 1251.39L419.645 1250.73V1250.4C419.645 1248.71 418.919 1248.45 416.708 1248.45C414.662 1248.45 414.035 1248.85 414.035 1250.23V1250.36H407.831V1250.3C407.831 1245.88 411.527 1243.04 417.17 1243.04C422.978 1243.04 425.783 1245.88 425.783 1250.53V1260H419.975V1256.5H419.645C419.018 1258.84 416.972 1260.33 413.375 1260.33ZM413.738 1255.38C413.738 1255.91 414.266 1256.01 415.223 1256.01C418.226 1256.01 419.447 1255.64 419.612 1254.16L414.53 1254.75C413.969 1254.82 413.738 1255.02 413.738 1255.38ZM433.826 1260H427.622V1237.89H433.826V1260ZM190.129 1306H183.925V1283.89H196.168C201.415 1283.89 204.715 1286.89 204.715 1292.14C204.715 1297.39 201.415 1300.42 196.168 1300.42H190.129V1306ZM195.475 1289.47H190.129V1294.85H195.475C197.653 1294.85 198.544 1294.42 198.544 1292.14C198.544 1289.9 197.653 1289.47 195.475 1289.47ZM212.236 1306H206.032V1289.37H211.84V1293.72H212.17C212.632 1290.98 214.348 1289.04 217.648 1289.04C221.311 1289.04 222.763 1291.45 222.763 1294.78V1298.08H216.559V1296.13C216.559 1294.75 216.031 1294.25 214.414 1294.25C212.731 1294.25 212.236 1294.75 212.236 1296.07V1306ZM233.286 1306.33C227.511 1306.33 223.584 1303.06 223.584 1297.68C223.584 1292.27 227.511 1289.04 233.286 1289.04C239.061 1289.04 242.988 1292.27 242.988 1297.68C242.988 1303.06 239.061 1306.33 233.286 1306.33ZM233.286 1300.85C236.091 1300.85 236.85 1300.09 236.85 1297.68C236.85 1295.27 236.091 1294.48 233.286 1294.48C230.481 1294.48 229.722 1295.27 229.722 1297.68C229.722 1300.09 230.481 1300.85 233.286 1300.85ZM250.286 1306H244.478V1283.89H250.682V1293.66H251.012C251.507 1290.89 253.355 1289.04 257.282 1289.04C262.166 1289.04 264.905 1292.27 264.905 1297.68C264.905 1303.06 262.1 1306.33 257.018 1306.33C253.124 1306.33 251.144 1304.81 250.616 1301.51H250.286V1306ZM250.682 1297.72C250.682 1300.13 252.002 1300.65 254.774 1300.65C257.645 1300.65 258.635 1299.89 258.635 1297.68C258.635 1295.47 257.645 1294.68 254.774 1294.68C252.002 1294.68 250.682 1295.14 250.682 1297.49V1297.72ZM272.757 1306H266.553V1283.89H272.757V1306ZM284.012 1306.33C278.369 1306.33 274.409 1303.92 274.409 1297.68C274.409 1292.27 278.336 1289.04 283.88 1289.04C289.622 1289.04 293.285 1291.91 293.285 1297.25C293.285 1297.82 293.252 1298.24 293.186 1298.84H280.151C280.25 1300.85 281.141 1301.41 283.781 1301.41C286.289 1301.41 286.949 1300.98 286.949 1299.99V1299.63H293.153V1300.03C293.153 1303.72 289.622 1306.33 284.012 1306.33ZM283.748 1293.79C281.471 1293.79 280.514 1294.28 280.25 1295.7H287.279C287.048 1294.28 286.058 1293.79 283.748 1293.79ZM301.149 1306H294.945V1289.37H300.753V1294.42H301.083C301.446 1291.64 302.964 1289.04 307.155 1289.04C311.082 1289.04 312.963 1291.41 313.293 1294.42H313.623C313.986 1291.64 315.57 1289.04 319.893 1289.04C324.15 1289.04 326.163 1291.74 326.163 1295.34V1306H319.959V1297.62C319.959 1295.31 319.299 1294.58 316.725 1294.58C314.184 1294.58 313.656 1295.27 313.656 1297.42V1306H307.452V1297.62C307.452 1295.31 306.792 1294.58 304.218 1294.58C301.677 1294.58 301.149 1295.27 301.149 1297.42V1306ZM336.953 1306.33C331.079 1306.33 327.944 1304.05 327.944 1300.22V1300.09H334.148V1300.42C334.148 1301.35 334.742 1301.45 336.986 1301.45C339.131 1301.45 339.461 1301.21 339.461 1300.65C339.461 1300.13 339.197 1299.99 337.646 1299.83L332.828 1299.3C329.396 1298.94 327.548 1297.32 327.548 1294.52C327.548 1291.58 329.891 1289.04 336.128 1289.04C341.903 1289.04 344.972 1291.12 344.972 1295.21V1295.34H338.768V1295.14C338.768 1294.28 338.438 1293.89 335.93 1293.89C333.917 1293.89 333.653 1294.15 333.653 1294.78C333.653 1295.24 333.917 1295.47 335.864 1295.67L339.164 1296.03C344.015 1296.56 345.566 1298.18 345.566 1300.98C345.566 1304.09 342.464 1306.33 336.953 1306.33Z" fill="url(#paint8_linear_26_2)"/>
</g>
<g filter="url(#filter8_d_26_2)">
<g filter="url(#filter9_b_26_2)">
<rect x="918" y="1449" width="530" height="160" rx="33.6" fill="#606060" fill-opacity="0.2"/>
<rect x="919" y="1450" width="528" height="158" rx="32.6" stroke="url(#paint9_linear_26_2)" stroke-width="2"/>
</g>
<path d="M1025.4 1539H1014.21V1516.89H1025.4C1032.69 1516.89 1037.31 1520.95 1037.31 1527.94C1037.31 1534.94 1032.69 1539 1025.4 1539ZM1025.4 1522.47H1020.42V1533.42H1025.4C1029.33 1533.42 1030.68 1532.93 1030.68 1527.94C1030.68 1522.96 1029.33 1522.47 1025.4 1522.47ZM1045.16 1520.85H1038.95V1516.89H1045.16V1520.85ZM1045.16 1539H1038.95V1522.37H1045.16V1539ZM1061.03 1539H1053.38L1045.98 1522.37H1052.91L1057.07 1532.96H1057.5L1061.69 1522.37H1068.49L1061.03 1539ZM1078.58 1539.33C1072.94 1539.33 1068.98 1536.92 1068.98 1530.68C1068.98 1525.27 1072.91 1522.04 1078.45 1522.04C1084.19 1522.04 1087.86 1524.91 1087.86 1530.25C1087.86 1530.82 1087.82 1531.24 1087.76 1531.84H1074.72C1074.82 1533.85 1075.71 1534.41 1078.35 1534.41C1080.86 1534.41 1081.52 1533.98 1081.52 1532.99V1532.63H1087.73V1533.03C1087.73 1536.72 1084.19 1539.33 1078.58 1539.33ZM1078.32 1526.79C1076.04 1526.79 1075.09 1527.28 1074.82 1528.7H1081.85C1081.62 1527.28 1080.63 1526.79 1078.32 1526.79ZM1095.72 1539H1089.52V1522.37H1095.33V1526.72H1095.66C1096.12 1523.98 1097.83 1522.04 1101.13 1522.04C1104.8 1522.04 1106.25 1524.45 1106.25 1527.78V1531.08H1100.04V1529.13C1100.04 1527.75 1099.52 1527.25 1097.9 1527.25C1096.22 1527.25 1095.72 1527.75 1095.72 1529.07V1539ZM1116.51 1539.33C1110.63 1539.33 1107.5 1537.05 1107.5 1533.22V1533.09H1113.7V1533.42C1113.7 1534.35 1114.3 1534.45 1116.54 1534.45C1118.69 1534.45 1119.02 1534.21 1119.02 1533.65C1119.02 1533.13 1118.75 1532.99 1117.2 1532.83L1112.38 1532.3C1108.95 1531.94 1107.1 1530.32 1107.1 1527.52C1107.1 1524.58 1109.45 1522.04 1115.68 1522.04C1121.46 1522.04 1124.53 1524.12 1124.53 1528.21V1528.34H1118.32V1528.14C1118.32 1527.28 1117.99 1526.89 1115.48 1526.89C1113.47 1526.89 1113.21 1527.15 1113.21 1527.78C1113.21 1528.24 1113.47 1528.47 1115.42 1528.67L1118.72 1529.03C1123.57 1529.56 1125.12 1531.18 1125.12 1533.98C1125.12 1537.09 1122.02 1539.33 1116.51 1539.33ZM1132.81 1520.85H1126.61V1516.89H1132.81V1520.85ZM1132.81 1539H1126.61V1522.37H1132.81V1539ZM1147.24 1539H1142.88C1138.72 1539 1136.25 1536.99 1136.25 1532.66V1527.45H1133.81V1522.37H1136.25V1519.5H1142.45V1522.37H1147.24V1527.45H1142.45V1531.77C1142.45 1533.09 1142.85 1533.42 1144.27 1533.42H1147.24V1539ZM1152.38 1544.61H1149.38V1539H1154.2C1154.69 1539 1155.09 1538.93 1155.35 1538.8L1147.4 1522.37H1154.46L1157.33 1528.9L1158.52 1532.73H1158.95L1160.04 1528.84L1162.51 1522.37H1169.44L1161.55 1539.66C1159.77 1543.59 1157.23 1544.61 1152.38 1544.61ZM1184.95 1539.33C1178.19 1539.33 1174.39 1537.38 1174.39 1532.8C1174.39 1529.4 1176.67 1527.71 1179.94 1527.48V1527.05C1176.9 1526.79 1175.42 1524.81 1175.42 1522.37C1175.42 1518.18 1178.78 1516.43 1184.59 1516.43H1188.06V1522.07H1183.7C1182.28 1522.07 1181.62 1522.24 1181.62 1523.65C1181.62 1525.01 1182.31 1525.17 1183.54 1525.17H1189.28V1522.37H1195.38V1525.17H1198.58V1530.25H1195.38V1530.82C1195.38 1536 1193.04 1539.33 1184.95 1539.33ZM1185.19 1533.69C1188.78 1533.69 1189.28 1533.49 1189.28 1531.15V1530.25H1182.71C1181.46 1530.25 1180.7 1530.52 1180.7 1531.97C1180.7 1533.29 1181.46 1533.69 1185.19 1533.69ZM1211.06 1539H1204.86V1516.89H1211.06V1539ZM1219.25 1539H1213.04V1522.37H1218.85V1527.42H1219.18C1219.54 1524.64 1221.36 1522.04 1225.81 1522.04C1230.3 1522.04 1232.41 1524.74 1232.41 1528.34V1539H1226.21V1530.62C1226.21 1528.31 1225.35 1527.58 1222.64 1527.58C1219.91 1527.58 1219.25 1528.27 1219.25 1530.42V1539ZM1243.59 1539.33C1237.68 1539.33 1233.92 1536.06 1233.92 1530.68C1233.92 1525.27 1237.68 1522.04 1243.59 1522.04C1249.26 1522.04 1252.89 1524.94 1252.89 1529.4V1529.92H1246.72V1529.66C1246.72 1527.94 1245.47 1527.58 1243.45 1527.58C1241.18 1527.58 1240.09 1528.08 1240.09 1530.68C1240.09 1533.26 1241.18 1533.75 1243.45 1533.75C1245.47 1533.75 1246.72 1533.42 1246.72 1531.71V1531.41H1252.89V1531.97C1252.89 1536.39 1249.26 1539.33 1243.59 1539.33ZM1260.75 1539H1254.55V1516.89H1260.75V1539ZM1269.57 1539.33C1264.91 1539.33 1262.74 1536.62 1262.74 1533.03V1522.37H1268.94V1530.75C1268.94 1533.06 1269.83 1533.79 1272.67 1533.79C1275.54 1533.79 1276.23 1533.09 1276.23 1530.95V1522.37H1282.44V1539H1276.63V1533.95H1276.3C1275.94 1536.72 1274.09 1539.33 1269.57 1539.33ZM1293.24 1539.33C1287.36 1539.33 1284.23 1537.05 1284.23 1533.22V1533.09H1290.43V1533.42C1290.43 1534.35 1291.03 1534.45 1293.27 1534.45C1295.42 1534.45 1295.75 1534.21 1295.75 1533.65C1295.75 1533.13 1295.48 1532.99 1293.93 1532.83L1289.11 1532.3C1285.68 1531.94 1283.83 1530.32 1283.83 1527.52C1283.83 1524.58 1286.18 1522.04 1292.41 1522.04C1298.19 1522.04 1301.26 1524.12 1301.26 1528.21V1528.34H1295.05V1528.14C1295.05 1527.28 1294.72 1526.89 1292.21 1526.89C1290.2 1526.89 1289.94 1527.15 1289.94 1527.78C1289.94 1528.24 1290.2 1528.47 1292.15 1528.67L1295.45 1529.03C1300.3 1529.56 1301.85 1531.18 1301.85 1533.98C1301.85 1537.09 1298.75 1539.33 1293.24 1539.33ZM1309.54 1520.85H1303.34V1516.89H1309.54V1520.85ZM1309.54 1539H1303.34V1522.37H1309.54V1539ZM1320.73 1539.33C1314.96 1539.33 1311.03 1536.06 1311.03 1530.68C1311.03 1525.27 1314.96 1522.04 1320.73 1522.04C1326.51 1522.04 1330.44 1525.27 1330.44 1530.68C1330.44 1536.06 1326.51 1539.33 1320.73 1539.33ZM1320.73 1533.85C1323.54 1533.85 1324.3 1533.09 1324.3 1530.68C1324.3 1528.27 1323.54 1527.48 1320.73 1527.48C1317.93 1527.48 1317.17 1528.27 1317.17 1530.68C1317.17 1533.09 1317.93 1533.85 1320.73 1533.85ZM1338.13 1539H1331.93V1522.37H1337.73V1527.42H1338.06C1338.43 1524.64 1340.24 1522.04 1344.7 1522.04C1349.18 1522.04 1351.3 1524.74 1351.3 1528.34V1539H1345.09V1530.62C1345.09 1528.31 1344.23 1527.58 1341.53 1527.58C1338.79 1527.58 1338.13 1528.27 1338.13 1530.42V1539Z" fill="url(#paint10_linear_26_2)"/>
</g>
<g filter="url(#filter10_d_26_2)">
<g filter="url(#filter11_b_26_2)">
<rect x="918" y="429" width="530" height="160" rx="33.6" fill="#606060" fill-opacity="0.2"/>
<rect x="919" y="430" width="528" height="158" rx="32.6" stroke="url(#paint11_linear_26_2)" stroke-width="2"/>
</g>
<path d="M1060.76 520.33C1053.07 520.33 1048.52 515.842 1048.52 508.945C1048.52 502.048 1053.07 497.56 1060.76 497.56C1068.65 497.56 1073.14 502.048 1073.14 508.945C1073.14 515.842 1068.65 520.33 1060.76 520.33ZM1060.76 514.39C1065.25 514.39 1066.54 513.334 1066.54 508.945C1066.54 504.556 1065.25 503.5 1060.76 503.5C1056.27 503.5 1055.12 504.556 1055.12 508.945C1055.12 513.334 1056.27 514.39 1060.76 514.39ZM1081 525.61H1074.79V503.368H1080.6V507.856H1080.93C1081.46 504.556 1083.44 503.038 1087.33 503.038C1092.41 503.038 1095.22 506.305 1095.22 511.684C1095.22 517.096 1092.48 520.33 1087.6 520.33C1083.67 520.33 1081.82 518.482 1081.33 515.71H1081V525.61ZM1081 511.882C1081 514.225 1082.32 514.687 1085.09 514.687C1087.96 514.687 1088.95 513.895 1088.95 511.684C1088.95 509.473 1087.96 508.714 1085.09 508.714C1082.32 508.714 1081 509.242 1081 511.651V511.882ZM1106.14 520.33C1100.5 520.33 1096.54 517.921 1096.54 511.684C1096.54 506.272 1100.46 503.038 1106.01 503.038C1111.75 503.038 1115.41 505.909 1115.41 511.255C1115.41 511.816 1115.38 512.245 1115.31 512.839H1102.28C1102.38 514.852 1103.27 515.413 1105.91 515.413C1108.42 515.413 1109.08 514.984 1109.08 513.994V513.631H1115.28V514.027C1115.28 517.723 1111.75 520.33 1106.14 520.33ZM1105.88 507.79C1103.6 507.79 1102.64 508.285 1102.38 509.704H1109.41C1109.18 508.285 1108.19 507.79 1105.88 507.79ZM1123.28 520H1117.07V503.368H1122.88V508.417H1123.21C1123.57 505.645 1125.39 503.038 1129.84 503.038C1134.33 503.038 1136.44 505.744 1136.44 509.341V520H1130.24V511.618C1130.24 509.308 1129.38 508.582 1126.68 508.582C1123.94 508.582 1123.28 509.275 1123.28 511.42V520ZM1149.09 520H1142.89V497.89H1149.09V520ZM1157.28 520H1151.07V503.368H1156.88V508.417H1157.21C1157.57 505.645 1159.39 503.038 1163.84 503.038C1168.33 503.038 1170.44 505.744 1170.44 509.341V520H1164.24V511.618C1164.24 509.308 1163.38 508.582 1160.68 508.582C1157.94 508.582 1157.28 509.275 1157.28 511.42V520ZM1178.48 520H1172.28V503.368H1178.09V508.417H1178.42C1178.78 505.645 1180.59 503.038 1185.05 503.038C1189.54 503.038 1191.65 505.744 1191.65 509.341V520H1185.44V511.618C1185.44 509.308 1184.59 508.582 1181.88 508.582C1179.14 508.582 1178.48 509.275 1178.48 511.42V520ZM1202.69 520.33C1196.91 520.33 1192.99 517.063 1192.99 511.684C1192.99 506.272 1196.91 503.038 1202.69 503.038C1208.46 503.038 1212.39 506.272 1212.39 511.684C1212.39 517.063 1208.46 520.33 1202.69 520.33ZM1202.69 514.852C1205.49 514.852 1206.25 514.093 1206.25 511.684C1206.25 509.275 1205.49 508.483 1202.69 508.483C1199.88 508.483 1199.13 509.275 1199.13 511.684C1199.13 514.093 1199.88 514.852 1202.69 514.852ZM1227.77 520H1220.12L1212.73 503.368H1219.66L1223.81 513.961H1224.24L1228.43 503.368H1235.23L1227.77 520ZM1241.43 520.33C1237.67 520.33 1235.56 518.614 1235.56 515.776C1235.56 513.433 1237.18 511.75 1240.94 511.387L1247.7 510.727V510.397C1247.7 508.714 1246.98 508.45 1244.77 508.45C1242.72 508.45 1242.09 508.846 1242.09 510.232V510.364H1235.89V510.298C1235.89 505.876 1239.58 503.038 1245.23 503.038C1251.04 503.038 1253.84 505.876 1253.84 510.529V520H1248.03V516.502H1247.7C1247.08 518.845 1245.03 520.33 1241.43 520.33ZM1241.8 515.38C1241.8 515.908 1242.32 516.007 1243.28 516.007C1246.28 516.007 1247.5 515.644 1247.67 514.159L1242.59 514.753C1242.03 514.819 1241.8 515.017 1241.8 515.38ZM1268.12 520H1263.76C1259.61 520 1257.13 517.987 1257.13 513.664V508.45H1254.69V503.368H1257.13V500.497H1263.34V503.368H1268.12V508.45H1263.34V512.773C1263.34 514.093 1263.73 514.423 1265.15 514.423H1268.12V520ZM1275.81 501.85H1269.6V497.89H1275.81V501.85ZM1275.81 520H1269.6V503.368H1275.81V520ZM1286.99 520.33C1281.22 520.33 1277.29 517.063 1277.29 511.684C1277.29 506.272 1281.22 503.038 1286.99 503.038C1292.77 503.038 1296.7 506.272 1296.7 511.684C1296.7 517.063 1292.77 520.33 1286.99 520.33ZM1286.99 514.852C1289.8 514.852 1290.56 514.093 1290.56 511.684C1290.56 509.275 1289.8 508.483 1286.99 508.483C1284.19 508.483 1283.43 509.275 1283.43 511.684C1283.43 514.093 1284.19 514.852 1286.99 514.852ZM1304.39 520H1298.19V503.368H1303.99V508.417H1304.32C1304.69 505.645 1306.5 503.038 1310.96 503.038C1315.45 503.038 1317.56 505.744 1317.56 509.341V520H1311.35V511.618C1311.35 509.308 1310.5 508.582 1307.79 508.582C1305.05 508.582 1304.39 509.275 1304.39 511.42V520Z" fill="url(#paint12_linear_26_2)"/>
</g>
<defs>
<filter id="filter0_d_26_2" x="-9" y="173" width="539" height="169" filterUnits="userSpaceOnUse" color-interpolation-filters="sRGB">
<feFlood flood-opacity="0" result="BackgroundImageFix"/>
<feColorMatrix in="SourceAlpha" type="matrix" values="0 0 0 0 0 0 0 0 0 0 0 0 0 0 0 0 0 0 127 0" result="hardAlpha"/>
<feOffset dx="-5" dy="5"/>
<feGaussianBlur stdDeviation="2"/>
<feComposite in2="hardAlpha" operator="out"/>
<feColorMatrix type="matrix" values="0 0 0 0 0 0 0 0 0 0 0 0 0 0 0 0 0 0 0.15 0"/>
<feBlend mode="normal" in2="BackgroundImageFix" result="effect1_dropShadow_26_2"/>
<feBlend mode="normal" in="SourceGraphic" in2="effect1_dropShadow_26_2" result="shape"/>
</filter>
<filter id="filter1_b_26_2" x="-6.4" y="166.6" width="542.8" height="172.8" filterUnits="userSpaceOnUse" color-interpolation-filters="sRGB">
<feFlood flood-opacity="0" result="BackgroundImageFix"/>
<feGaussianBlur in="BackgroundImageFix" stdDeviation="3.2"/>
<feComposite in2="SourceAlpha" operator="in" result="effect1_backgroundBlur_26_2"/>
<feBlend mode="normal" in="SourceGraphic" in2="effect1_backgroundBlur_26_2" result="shape"/>
</filter>
<filter id="filter2_d_26_2" x="-9" y="683" width="539" height="169" filterUnits="userSpaceOnUse" color-interpolation-filters="sRGB">
<feFlood flood-opacity="0" result="BackgroundImageFix"/>
<feColorMatrix in="SourceAlpha" type="matrix" values="0 0 0 0 0 0 0 0 0 0 0 0 0 0 0 0 0 0 127 0" result="hardAlpha"/>
<feOffset dx="-5" dy="5"/>
<feGaussianBlur stdDeviation="2"/>
<feComposite in2="hardAlpha" operator="out"/>
<feColorMatrix type="matrix" values="0 0 0 0 0 0 0 0 0 0 0 0 0 0 0 0 0 0 0.15 0"/>
<feBlend mode="normal" in2="BackgroundImageFix" result="effect1_dropShadow_26_2"/>
<feBlend mode="normal" in="SourceGraphic" in2="effect1_dropShadow_26_2" result="shape"/>
</filter>
<filter id="filter3_b_26_2" x="-6.4" y="676.6" width="542.8" height="172.8" filterUnits="userSpaceOnUse" color-interpolation-filters="sRGB">
<feFlood flood-opacity="0" result="BackgroundImageFix"/>
<feGaussianBlur in="BackgroundImageFix" stdDeviation="3.2"/>
<feComposite in2="SourceAlpha" operator="in" result="effect1_backgroundBlur_26_2"/>
<feBlend mode="normal" in="SourceGraphic" in2="effect1_backgroundBlur_26_2" result="shape"/>
</filter>
<filter id="filter4_d_26_2" x="909" y="939" width="539" height="169" filterUnits="userSpaceOnUse" color-interpolation-filters="sRGB">
<feFlood flood-opacity="0" result="BackgroundImageFix"/>
<feColorMatrix in="SourceAlpha" type="matrix" values="0 0 0 0 0 0 0 0 0 0 0 0 0 0 0 0 0 0 127 0" result="hardAlpha"/>
<feOffset dx="-5" dy="5"/>
<feGaussianBlur stdDeviation="2"/>
<feComposite in2="hardAlpha" operator="out"/>
<feColorMatrix type="matrix" values="0 0 0 0 0 0 0 0 0 0 0 0 0 0 0 0 0 0 0.15 0"/>
<feBlend mode="normal" in2="BackgroundImageFix" result="effect1_dropShadow_26_2"/>
<feBlend mode="normal" in="SourceGraphic" in2="effect1_dropShadow_26_2" result="shape"/>
</filter>
<filter id="filter5_b_26_2" x="911.6" y="932.6" width="542.8" height="172.8" filterUnits="userSpaceOnUse" color-interpolation-filters="sRGB">
<feFlood flood-opacity="0" result="BackgroundImageFix"/>
<feGaussianBlur in="BackgroundImageFix" stdDeviation="3.2"/>
<feComposite in2="SourceAlpha" operator="in" result="effect1_backgroundBlur_26_2"/>
<feBlend mode="normal" in="SourceGraphic" in2="effect1_backgroundBlur_26_2" result="shape"/>
</filter>
<filter id="filter6_d_26_2" x="-9" y="1193" width="539" height="169" filterUnits="userSpaceOnUse" color-interpolation-filters="sRGB">
<feFlood flood-opacity="0" result="BackgroundImageFix"/>
<feColorMatrix in="SourceAlpha" type="matrix" values="0 0 0 0 0 0 0 0 0 0 0 0 0 0 0 0 0 0 127 0" result="hardAlpha"/>
<feOffset dx="-5" dy="5"/>
<feGaussianBlur stdDeviation="2"/>
<feComposite in2="hardAlpha" operator="out"/>
<feColorMatrix type="matrix" values="0 0 0 0 0 0 0 0 0 0 0 0 0 0 0 0 0 0 0.15 0"/>
<feBlend mode="normal" in2="BackgroundImageFix" result="effect1_dropShadow_26_2"/>
<feBlend mode="normal" in="SourceGraphic" in2="effect1_dropShadow_26_2" result="shape"/>
</filter>
<filter id="filter7_b_26_2" x="-6.4" y="1186.6" width="542.8" height="172.8" filterUnits="userSpaceOnUse" color-interpolation-filters="sRGB">
<feFlood flood-opacity="0" result="BackgroundImageFix"/>
<feGaussianBlur in="BackgroundImageFix" stdDeviation="3.2"/>
<feComposite in2="SourceAlpha" operator="in" result="effect1_backgroundBlur_26_2"/>
<feBlend mode="normal" in="SourceGraphic" in2="effect1_backgroundBlur_26_2" result="shape"/>
</filter>
<filter id="filter8_d_26_2" x="909" y="1449" width="539" height="169" filterUnits="userSpaceOnUse" color-interpolation-filters="sRGB">
<feFlood flood-opacity="0" result="BackgroundImageFix"/>
<feColorMatrix in="SourceAlpha" type="matrix" values="0 0 0 0 0 0 0 0 0 0 0 0 0 0 0 0 0 0 127 0" result="hardAlpha"/>
<feOffset dx="-5" dy="5"/>
<feGaussianBlur stdDeviation="2"/>
<feComposite in2="hardAlpha" operator="out"/>
<feColorMatrix type="matrix" values="0 0 0 0 0 0 0 0 0 0 0 0 0 0 0 0 0 0 0.15 0"/>
<feBlend mode="normal" in2="BackgroundImageFix" result="effect1_dropShadow_26_2"/>
<feBlend mode="normal" in="SourceGraphic" in2="effect1_dropShadow_26_2" result="shape"/>
</filter>
<filter id="filter9_b_26_2" x="911.6" y="1442.6" width="542.8" height="172.8" filterUnits="userSpaceOnUse" color-interpolation-filters="sRGB">
<feFlood flood-opacity="0" result="BackgroundImageFix"/>
<feGaussianBlur in="BackgroundImageFix" stdDeviation="3.2"/>
<feComposite in2="SourceAlpha" operator="in" result="effect1_backgroundBlur_26_2"/>
<feBlend mode="normal" in="SourceGraphic" in2="effect1_backgroundBlur_26_2" result="shape"/>
</filter>
<filter id="filter10_d_26_2" x="909" y="429" width="539" height="169" filterUnits="userSpaceOnUse" color-interpolation-filters="sRGB">
<feFlood flood-opacity="0" result="BackgroundImageFix"/>
<feColorMatrix in="SourceAlpha" type="matrix" values="0 0 0 0 0 0 0 0 0 0 0 0 0 0 0 0 0 0 127 0" result="hardAlpha"/>
<feOffset dx="-5" dy="5"/>
<feGaussianBlur stdDeviation="2"/>
<feComposite in2="hardAlpha" operator="out"/>
<feColorMatrix type="matrix" values="0 0 0 0 0 0 0 0 0 0 0 0 0 0 0 0 0 0 0.15 0"/>
<feBlend mode="normal" in2="BackgroundImageFix" result="effect1_dropShadow_26_2"/>
<feBlend mode="normal" in="SourceGraphic" in2="effect1_dropShadow_26_2" result="shape"/>
</filter>
<filter id="filter11_b_26_2" x="911.6" y="422.6" width="542.8" height="172.8" filterUnits="userSpaceOnUse" color-interpolation-filters="sRGB">
<feFlood flood-opacity="0" result="BackgroundImageFix"/>
<feGaussianBlur in="BackgroundImageFix" stdDeviation="3.2"/>
<feComposite in2="SourceAlpha" operator="in" result="effect1_backgroundBlur_26_2"/>
<feBlend mode="normal" in="SourceGraphic" in2="effect1_backgroundBlur_26_2" result="shape"/>
</filter>
<linearGradient id="paint0_linear_26_2" x1="702" y1="-117" x2="127.331" y2="151.439" gradientUnits="userSpaceOnUse">
<stop stop-color="#2B7DF7"/>
<stop offset="0.255208" stop-color="#FAD17F"/>
<stop offset="0.5" stop-color="#DBA6BF"/>
<stop offset="0.697917" stop-color="#BF7EFB"/>
<stop offset="0.958333" stop-color="#66DFFE"/>
</linearGradient>
<linearGradient id="paint1_linear_26_2" x1="-22.2852" y1="231.252" x2="513.773" y2="271.181" gradientUnits="userSpaceOnUse">
<stop offset="0.0940888" stop-color="#64E3FF"/>
<stop offset="0.424221" stop-color="#BE7CFF"/>
<stop offset="0.731996" stop-color="#FFD876"/>
<stop offset="1" stop-color="#2D7EF9"/>
</linearGradient>
<linearGradient id="paint2_linear_26_2" x1="77.4406" y1="239.859" x2="427.152" y2="269.137" gradientUnits="userSpaceOnUse">
<stop offset="0.0940888" stop-color="#64E3FF"/>
<stop offset="0.424221" stop-color="#BE7CFF"/>
<stop offset="0.731996" stop-color="#FFD876"/>
<stop offset="1" stop-color="#2D7EF9"/>
</linearGradient>
<linearGradient id="paint3_linear_26_2" x1="-22.2852" y1="741.252" x2="513.773" y2="781.181" gradientUnits="userSpaceOnUse">
<stop offset="0.0940888" stop-color="#64E3FF"/>
<stop offset="0.424221" stop-color="#BE7CFF"/>
<stop offset="0.731996" stop-color="#FFD876"/>
<stop offset="1" stop-color="#2D7EF9"/>
</linearGradient>
<linearGradient id="paint4_linear_26_2" x1="77.4406" y1="756.641" x2="420.738" y2="811.806" gradientUnits="userSpaceOnUse">
<stop offset="0.0940888" stop-color="#64E3FF"/>
<stop offset="0.424221" stop-color="#BE7CFF"/>
<stop offset="0.731996" stop-color="#FFD876"/>
<stop offset="1" stop-color="#2D7EF9"/>
</linearGradient>
<linearGradient id="paint5_linear_26_2" x1="895.715" y1="997.252" x2="1431.77" y2="1037.18" gradientUnits="userSpaceOnUse">
<stop offset="0.0940888" stop-color="#64E3FF"/>
<stop offset="0.424221" stop-color="#BE7CFF"/>
<stop offset="0.731996" stop-color="#FFD876"/>
<stop offset="1" stop-color="#2D7EF9"/>
</linearGradient>
<linearGradient id="paint6_linear_26_2" x1="962.971" y1="1005.86" x2="1370.96" y2="1045.81" gradientUnits="userSpaceOnUse">
<stop offset="0.0940888" stop-color="#64E3FF"/>
<stop offset="0.424221" stop-color="#BE7CFF"/>
<stop offset="0.731996" stop-color="#FFD876"/>
<stop offset="1" stop-color="#2D7EF9"/>
</linearGradient>
<linearGradient id="paint7_linear_26_2" x1="-22.2852" y1="1251.25" x2="513.773" y2="1291.18" gradientUnits="userSpaceOnUse">
<stop offset="0.0940888" stop-color="#64E3FF"/>
<stop offset="0.424221" stop-color="#BE7CFF"/>
<stop offset="0.731996" stop-color="#FFD876"/>
<stop offset="1" stop-color="#2D7EF9"/>
</linearGradient>
<linearGradient id="paint8_linear_26_2" x1="44.9707" y1="1259.86" x2="452.96" y2="1299.81" gradientUnits="userSpaceOnUse">
<stop offset="0.0940888" stop-color="#64E3FF"/>
<stop offset="0.424221" stop-color="#BE7CFF"/>
<stop offset="0.731996" stop-color="#FFD876"/>
<stop offset="1" stop-color="#2D7EF9"/>
</linearGradient>
<linearGradient id="paint9_linear_26_2" x1="895.715" y1="1507.25" x2="1431.77" y2="1547.18" gradientUnits="userSpaceOnUse">
<stop offset="0.0940888" stop-color="#64E3FF"/>
<stop offset="0.424221" stop-color="#BE7CFF"/>
<stop offset="0.731996" stop-color="#FFD876"/>
<stop offset="1" stop-color="#2D7EF9"/>
</linearGradient>
<linearGradient id="paint10_linear_26_2" x1="962.971" y1="1522.11" x2="1359.97" y2="1599.04" gradientUnits="userSpaceOnUse">
<stop offset="0.0940888" stop-color="#64E3FF"/>
<stop offset="0.424221" stop-color="#BE7CFF"/>
<stop offset="0.731996" stop-color="#FFD876"/>
<stop offset="1" stop-color="#2D7EF9"/>
</linearGradient>
<linearGradient id="paint11_linear_26_2" x1="895.715" y1="487.252" x2="1431.77" y2="527.181" gradientUnits="userSpaceOnUse">
<stop offset="0.0940888" stop-color="#64E3FF"/>
<stop offset="0.424221" stop-color="#BE7CFF"/>
<stop offset="0.731996" stop-color="#FFD876"/>
<stop offset="1" stop-color="#2D7EF9"/>
</linearGradient>
<linearGradient id="paint12_linear_26_2" x1="995.441" y1="502.641" x2="1338.74" y2="557.806" gradientUnits="userSpaceOnUse">
<stop offset="0.0940888" stop-color="#64E3FF"/>
<stop offset="0.424221" stop-color="#BE7CFF"/>
<stop offset="0.731996" stop-color="#FFD876"/>
<stop offset="1" stop-color="#2D7EF9"/>
</linearGradient>
</defs>
</svg>
