<svg width="1457" height="1618" viewBox="0 0 1457 1618" fill="none" xmlns="http://www.w3.org/2000/svg">
<path fill-rule="evenodd" clip-rule="evenodd" d="M733 0C730.239 0 728 2.23858 728 5V62.4228C726.963 84.3317 721.933 105.925 713.793 126.226C704.611 149.124 691.154 169.93 674.188 187.456C657.223 204.981 637.082 218.884 614.916 228.368C594.31 237.186 572.328 242.025 550.061 242.663C547.267 242.743 545 245.001 545 247.797C545 250.593 547.267 252.866 550.061 252.79C573.616 252.15 596.871 247.048 618.667 237.722C642.022 227.728 663.243 213.08 681.118 194.614C698.993 176.149 713.173 154.227 722.847 130.1C724.726 125.413 726.447 120.662 728 115.855L728 310C728 310.026 728 310.053 728 310.079V564C728 588.785 722.974 613.327 713.793 636.226C704.611 659.124 691.154 679.93 674.188 697.456C657.223 714.981 637.082 728.884 614.916 738.368C594.31 747.186 572.328 752.025 550.061 752.663C547.267 752.743 545 755.001 545 757.797C545 760.593 547.267 762.866 550.061 762.79C573.616 762.15 596.871 757.048 618.667 747.722C642.022 737.728 663.243 723.08 681.118 704.614C698.993 686.149 713.173 664.227 722.847 640.1C724.734 635.393 726.454 630.621 728 625.794L728 811C728 811.026 728 811.053 728 811.079V1074C728 1098.79 722.974 1123.33 713.793 1146.23C704.611 1169.12 691.154 1189.93 674.188 1207.46C657.223 1224.98 637.082 1238.88 614.916 1248.37C594.31 1257.19 572.328 1262.03 550.061 1262.66C547.267 1262.74 545 1265 545 1267.8C545 1270.59 547.267 1272.87 550.061 1272.79C573.616 1272.15 596.871 1267.05 618.667 1257.72C642.022 1247.73 663.243 1233.08 681.118 1214.61C698.993 1196.15 713.173 1174.23 722.847 1150.1C724.734 1145.39 726.454 1140.62 728 1135.79L728 1330C728 1330.03 728 1330.05 728 1330.08V1336H728.088C728.791 1360.07 733.721 1383.82 742.653 1406.1C752.327 1430.23 766.507 1452.15 784.382 1470.61C802.257 1489.08 823.478 1503.73 846.833 1513.72C868.629 1523.05 891.884 1528.15 915.439 1528.79C918.233 1528.87 920.5 1526.59 920.5 1523.8C920.5 1521 918.233 1518.74 915.439 1518.66C893.172 1518.03 871.19 1513.19 850.584 1504.37C828.418 1494.88 808.277 1480.98 791.312 1463.46C774.346 1445.93 760.889 1425.12 751.707 1402.23C743.267 1381.18 738.593 1358.74 737.892 1336H738V874.26C739.406 878.588 740.957 882.871 742.653 887.1C752.327 911.227 766.507 933.149 784.382 951.614C802.257 970.08 823.478 984.728 846.833 994.722C868.629 1004.05 891.884 1009.15 915.439 1009.79C918.233 1009.87 920.5 1007.59 920.5 1004.8C920.5 1002 918.233 999.743 915.439 999.663C893.172 999.025 871.19 994.186 850.584 985.368C828.418 975.884 808.277 961.981 791.312 944.456C774.346 926.93 760.889 906.124 751.707 883.226C743.617 863.049 738.987 841.597 738 819.826V373.26C739.406 377.588 740.957 381.871 742.653 386.1C752.327 410.227 766.507 432.149 784.382 450.614C802.257 469.08 823.478 483.728 846.833 493.722C868.629 503.048 891.884 508.15 915.439 508.79C918.233 508.866 920.5 506.593 920.5 503.797C920.5 501.001 918.233 498.743 915.439 498.663C893.172 498.025 871.19 493.186 850.584 484.368C828.418 474.884 808.277 460.981 791.312 443.456C774.346 425.93 760.889 405.124 751.707 382.226C743.617 362.049 738.987 340.597 738 318.826V54V5C738 2.23858 735.761 0 733 0Z" fill="url(#paint0_linear_26_2)"/>
<g filter="url(#filter0_d_26_2)">
<g filter="url(#filter1_b_26_2)">
<rect x="9" y="173" width="530" height="160" rx="33.6" fill="#606060" fill-opacity="0.2"/>
<rect x="10" y="174" width="528" height="158" rx="32.6" stroke="url(#paint1_linear_26_2)" stroke-width="2"/>
</g>
<path d="M120.826 242.466C111.879 242.466 106.618 237.244 106.618 229.218C106.618 221.192 111.879 215.97 120.826 215.97C129.466 215.97 134.65 220.079 134.65 226.952V227.605H126.586V226.952C126.586 224.034 125.204 222.882 120.941 222.882C115.719 222.882 114.298 224.111 114.298 229.218C114.298 234.325 115.719 235.554 120.941 235.554C125.204 235.554 126.586 234.402 126.586 231.484V230.831H134.65V231.484C134.65 238.357 129.466 242.466 120.826 242.466ZM143.771 242.082H136.552V216.354H143.771V242.082ZM153.296 220.962H146.077V216.354H153.296V220.962ZM153.296 242.082H146.077V222.728H153.296V242.082ZM162.821 242.082H155.602V222.728H162.36V228.604H162.744C163.167 225.378 164.933 222.344 169.81 222.344C174.38 222.344 176.569 225.109 176.953 228.604H177.337C177.759 225.378 179.602 222.344 184.633 222.344C189.586 222.344 191.929 225.493 191.929 229.679V242.082H184.709V232.328C184.709 229.64 183.941 228.796 180.946 228.796C177.989 228.796 177.375 229.602 177.375 232.098V242.082H170.156V232.328C170.156 229.64 169.388 228.796 166.392 228.796C163.436 228.796 162.821 229.602 162.821 232.098V242.082ZM200.336 242.466C195.959 242.466 193.501 240.469 193.501 237.167C193.501 234.44 195.383 232.482 199.76 232.06L207.632 231.292V230.908C207.632 228.949 206.788 228.642 204.215 228.642C201.834 228.642 201.104 229.103 201.104 230.716V230.869H193.885V230.792C193.885 225.647 198.186 222.344 204.752 222.344C211.511 222.344 214.775 225.647 214.775 231.061V242.082H208.016V238.012H207.632C206.903 240.738 204.522 242.466 200.336 242.466ZM200.759 236.706C200.759 237.32 201.373 237.436 202.487 237.436C205.981 237.436 207.402 237.013 207.594 235.285L201.68 235.976C201.028 236.053 200.759 236.284 200.759 236.706ZM231.391 242.082H226.323C221.484 242.082 218.604 239.74 218.604 234.709V228.642H215.763V222.728H218.604V219.388H225.823V222.728H231.391V228.642H225.823V233.672C225.823 235.208 226.284 235.592 227.935 235.592H231.391V242.082ZM243.905 242.466C237.339 242.466 232.731 239.663 232.731 232.405C232.731 226.108 237.3 222.344 243.751 222.344C250.433 222.344 254.695 225.685 254.695 231.906C254.695 232.559 254.657 233.058 254.58 233.749H239.412C239.527 236.092 240.564 236.744 243.636 236.744C246.555 236.744 247.323 236.245 247.323 235.093V234.671H254.542V235.132C254.542 239.432 250.433 242.466 243.905 242.466ZM243.598 227.874C240.948 227.874 239.835 228.45 239.527 230.101H247.707C247.438 228.45 246.286 227.874 243.598 227.874ZM272.857 242.466C265.983 242.466 261.606 238.664 261.606 232.405C261.606 226.108 265.983 222.344 272.857 222.344C279.462 222.344 283.686 225.724 283.686 230.908V231.522H276.505V231.215C276.505 229.218 275.046 228.796 272.703 228.796C270.054 228.796 268.786 229.372 268.786 232.405C268.786 235.4 270.054 235.976 272.703 235.976C275.046 235.976 276.505 235.592 276.505 233.596V233.25H283.686V233.903C283.686 239.048 279.462 242.466 272.857 242.466ZM292.834 242.082H285.615V216.354H292.834V228.604H293.218C293.832 225.34 295.983 222.344 300.936 222.344C306.082 222.344 308.54 225.608 308.54 229.909V242.082H301.32V232.328C301.32 229.64 300.284 228.796 296.981 228.796C293.64 228.796 292.834 229.602 292.834 232.098V242.082ZM316.961 242.466C312.584 242.466 310.126 240.469 310.126 237.167C310.126 234.44 312.008 232.482 316.385 232.06L324.257 231.292V230.908C324.257 228.949 323.413 228.642 320.84 228.642C318.459 228.642 317.729 229.103 317.729 230.716V230.869H310.51V230.792C310.51 225.647 314.811 222.344 321.377 222.344C328.136 222.344 331.4 225.647 331.4 231.061V242.082H324.641V238.012H324.257C323.528 240.738 321.147 242.466 316.961 242.466ZM317.384 236.706C317.384 237.32 317.998 237.436 319.112 237.436C322.606 237.436 324.027 237.013 324.219 235.285L318.305 235.976C317.653 236.053 317.384 236.284 317.384 236.706ZM340.759 242.082H333.54V222.728H340.298V228.604H340.682C341.105 225.378 343.217 222.344 348.401 222.344C353.623 222.344 356.081 225.493 356.081 229.679V242.082H348.861V232.328C348.861 229.64 347.863 228.796 344.714 228.796C341.527 228.796 340.759 229.602 340.759 232.098V242.082ZM366.816 239.932C361.056 239.932 357.831 236.629 357.831 231.1C357.831 225.647 361.287 222.344 367.008 222.344C370.925 222.344 373.536 223.919 374.074 227.26H374.458V222.728H381.216V238.818C381.216 245.73 377.108 248.994 369.658 248.994C362.9 248.994 358.983 246.152 358.983 241.084H366.202C366.202 242.658 366.394 243.042 370.157 243.042C373.268 243.042 373.997 242.581 373.997 239.317V235.247H373.613C373.114 238.05 371.079 239.932 366.816 239.932ZM365.127 231.1C365.127 233.02 366.048 233.749 369.428 233.749C372.653 233.749 373.997 233.365 373.997 231.33V231.061C373.997 228.988 372.653 228.565 369.428 228.565C366.048 228.565 365.127 229.218 365.127 231.1ZM394.318 242.466C387.751 242.466 383.143 239.663 383.143 232.405C383.143 226.108 387.713 222.344 394.164 222.344C400.846 222.344 405.108 225.685 405.108 231.906C405.108 232.559 405.07 233.058 404.993 233.749H389.825C389.94 236.092 390.977 236.744 394.049 236.744C396.967 236.744 397.735 236.245 397.735 235.093V234.671H404.954V235.132C404.954 239.432 400.846 242.466 394.318 242.466ZM394.01 227.874C391.361 227.874 390.247 228.45 389.94 230.101H398.119C397.85 228.45 396.698 227.874 394.01 227.874ZM424.306 242.466C416.434 242.466 412.018 240.2 412.018 234.863C412.018 230.908 414.668 228.949 418.47 228.68V228.181C414.937 227.874 413.209 225.57 413.209 222.728C413.209 217.852 417.126 215.816 423.884 215.816H427.916V222.383H422.847C421.196 222.383 420.428 222.575 420.428 224.226C420.428 225.8 421.234 225.992 422.655 225.992H429.337V222.728H436.441V225.992H440.166V231.906H436.441V232.559C436.441 238.588 433.714 242.466 424.306 242.466ZM424.575 235.9C428.761 235.9 429.337 235.669 429.337 232.943V231.906H421.695C420.236 231.906 419.353 232.213 419.353 233.903C419.353 235.439 420.236 235.9 424.575 235.9ZM168.813 288.082H145.965V262.354H168.813V268.844H153.184V271.916H168.237V278.367H153.184V281.592H168.813V288.082ZM178.084 288.082H170.865V268.728H177.623V274.604H178.007C178.429 271.378 180.541 268.344 185.725 268.344C190.948 268.344 193.405 271.493 193.405 275.679V288.082H186.186V278.328C186.186 275.64 185.188 274.796 182.039 274.796C178.852 274.796 178.084 275.602 178.084 278.098V288.082ZM211.706 288.082H202.797L194.196 268.728H202.26L207.098 281.055H207.597L212.474 268.728H220.384L211.706 288.082ZM228.559 266.962H221.34V262.354H228.559V266.962ZM228.559 288.082H221.34V268.728H228.559V288.082ZM238.084 288.082H230.865V268.728H237.623V273.797H238.007C238.545 270.61 240.541 268.344 244.381 268.344C248.644 268.344 250.333 271.148 250.333 275.026V278.866H243.114V276.6C243.114 274.988 242.5 274.412 240.618 274.412C238.66 274.412 238.084 274.988 238.084 276.524V288.082ZM262.578 288.466C255.858 288.466 251.289 284.664 251.289 278.405C251.289 272.108 255.858 268.344 262.578 268.344C269.298 268.344 273.868 272.108 273.868 278.405C273.868 284.664 269.298 288.466 262.578 288.466ZM262.578 282.092C265.842 282.092 266.725 281.208 266.725 278.405C266.725 275.602 265.842 274.68 262.578 274.68C259.314 274.68 258.431 275.602 258.431 278.405C258.431 281.208 259.314 282.092 262.578 282.092ZM282.821 288.082H275.602V268.728H282.361V274.604H282.745C283.167 271.378 285.279 268.344 290.463 268.344C295.685 268.344 298.143 271.493 298.143 275.679V288.082H290.924V278.328C290.924 275.64 289.925 274.796 286.777 274.796C283.589 274.796 282.821 275.602 282.821 278.098V288.082ZM307.496 288.082H300.277V268.728H307.036V274.604H307.42C307.842 271.378 309.608 268.344 314.485 268.344C319.055 268.344 321.244 271.109 321.628 274.604H322.012C322.434 271.378 324.277 268.344 329.308 268.344C334.261 268.344 336.604 271.493 336.604 275.679V288.082H329.384V278.328C329.384 275.64 328.616 274.796 325.621 274.796C322.664 274.796 322.05 275.602 322.05 278.098V288.082H314.831V278.328C314.831 275.64 314.063 274.796 311.068 274.796C308.111 274.796 307.496 275.602 307.496 278.098V288.082ZM349.543 288.466C342.976 288.466 338.368 285.663 338.368 278.405C338.368 272.108 342.938 268.344 349.389 268.344C356.071 268.344 360.333 271.685 360.333 277.906C360.333 278.559 360.295 279.058 360.218 279.749H345.05C345.165 282.092 346.202 282.744 349.274 282.744C352.192 282.744 352.96 282.245 352.96 281.093V280.671H360.179V281.132C360.179 285.432 356.071 288.466 349.543 288.466ZM349.235 273.874C346.586 273.874 345.472 274.45 345.165 276.101H353.344C353.075 274.45 351.923 273.874 349.235 273.874ZM369.484 288.082H362.265V268.728H369.023V274.604H369.407C369.83 271.378 371.942 268.344 377.126 268.344C382.348 268.344 384.806 271.493 384.806 275.679V288.082H377.586V278.328C377.586 275.64 376.588 274.796 373.439 274.796C370.252 274.796 369.484 275.602 369.484 278.098V288.082ZM401.417 288.082H396.348C391.509 288.082 388.629 285.74 388.629 280.709V274.642H385.788V268.728H388.629V265.388H395.849V268.728H401.417V274.642H395.849V279.672C395.849 281.208 396.309 281.592 397.961 281.592H401.417V288.082Z" fill="url(#paint2_linear_26_2)"/>
</g>
<g filter="url(#filter2_d_26_2)">
<g filter="url(#filter3_b_26_2)">
<rect x="9" y="683" width="530" height="160" rx="33.6" fill="#606060" fill-opacity="0.2"/>
<rect x="10" y="684" width="528" height="158" rx="32.6" stroke="url(#paint3_linear_26_2)" stroke-width="2"/>
</g>
<path d="M115.482 776.466C106.535 776.466 101.274 771.244 101.274 763.218C101.274 755.192 106.535 749.97 115.482 749.97C124.122 749.97 129.306 754.079 129.306 760.952V761.605H121.242V760.952C121.242 758.034 119.86 756.882 115.598 756.882C110.375 756.882 108.954 758.111 108.954 763.218C108.954 768.325 110.375 769.554 115.598 769.554C119.86 769.554 121.242 768.402 121.242 765.484V764.831H129.306V765.484C129.306 772.357 124.122 776.466 115.482 776.466ZM138.428 776.082H131.208V756.728H137.967V761.797H138.351C138.888 758.61 140.885 756.344 144.725 756.344C148.988 756.344 150.677 759.148 150.677 763.026V766.866H143.458V764.6C143.458 762.988 142.844 762.412 140.962 762.412C139.004 762.412 138.428 762.988 138.428 764.524V776.082ZM159.428 754.962H152.208V750.354H159.428V754.962ZM159.428 776.082H152.208V756.728H159.428V776.082ZM168.953 776.082H161.733V756.728H168.492V762.604H168.876C169.298 759.378 171.065 756.344 175.941 756.344C180.511 756.344 182.7 759.109 183.084 762.604H183.468C183.89 759.378 185.733 756.344 190.764 756.344C195.717 756.344 198.06 759.493 198.06 763.679V776.082H190.841V766.328C190.841 763.64 190.073 762.796 187.077 762.796C184.121 762.796 183.506 763.602 183.506 766.098V776.082H176.287V766.328C176.287 763.64 175.519 762.796 172.524 762.796C169.567 762.796 168.953 763.602 168.953 766.098V776.082ZM210.999 776.466C204.432 776.466 199.824 773.663 199.824 766.405C199.824 760.108 204.394 756.344 210.845 756.344C217.527 756.344 221.789 759.685 221.789 765.906C221.789 766.559 221.751 767.058 221.674 767.749H206.506C206.621 770.092 207.658 770.744 210.73 770.744C213.648 770.744 214.416 770.245 214.416 769.093V768.671H221.636V769.132C221.636 773.432 217.527 776.466 210.999 776.466ZM210.692 761.874C208.042 761.874 206.928 762.45 206.621 764.101H214.8C214.532 762.45 213.38 761.874 210.692 761.874ZM236.303 776.082H229.083V750.354H243.33C249.435 750.354 253.275 753.848 253.275 759.954C253.275 766.06 249.435 769.592 243.33 769.592H236.303V776.082ZM242.523 756.844H236.303V763.103H242.523C245.058 763.103 246.095 762.604 246.095 759.954C246.095 757.343 245.058 756.844 242.523 756.844ZM262.028 776.082H254.808V756.728H261.567V761.797H261.951C262.488 758.61 264.485 756.344 268.325 756.344C272.588 756.344 274.277 759.148 274.277 763.026V766.866H267.058V764.6C267.058 762.988 266.444 762.412 264.562 762.412C262.604 762.412 262.028 762.988 262.028 764.524V776.082ZM286.599 776.466C280.032 776.466 275.424 773.663 275.424 766.405C275.424 760.108 279.994 756.344 286.445 756.344C293.127 756.344 297.389 759.685 297.389 765.906C297.389 766.559 297.351 767.058 297.274 767.749H282.106C282.221 770.092 283.258 770.744 286.33 770.744C289.248 770.744 290.016 770.245 290.016 769.093V768.671H297.236V769.132C297.236 773.432 293.127 776.466 286.599 776.466ZM286.292 761.874C283.642 761.874 282.528 762.45 282.221 764.101H290.4C290.132 762.45 288.98 761.874 286.292 761.874ZM315.487 776.082H306.579L297.977 756.728H306.041L310.879 769.055H311.379L316.255 756.728H324.166L315.487 776.082ZM335.911 776.466C329.345 776.466 324.737 773.663 324.737 766.405C324.737 760.108 329.307 756.344 335.758 756.344C342.439 756.344 346.702 759.685 346.702 765.906C346.702 766.559 346.663 767.058 346.587 767.749H331.419C331.534 770.092 332.571 770.744 335.643 770.744C338.561 770.744 339.329 770.245 339.329 769.093V768.671H346.548V769.132C346.548 773.432 342.439 776.466 335.911 776.466ZM335.604 761.874C332.955 761.874 331.841 762.45 331.534 764.101H339.713C339.444 762.45 338.292 761.874 335.604 761.874ZM355.853 776.082H348.633V756.728H355.392V762.604H355.776C356.198 759.378 358.31 756.344 363.494 756.344C368.717 756.344 371.174 759.493 371.174 763.679V776.082H363.955V766.328C363.955 763.64 362.957 762.796 359.808 762.796C356.621 762.796 355.853 763.602 355.853 766.098V776.082ZM387.785 776.082H382.717C377.878 776.082 374.998 773.74 374.998 768.709V762.642H372.156V756.728H374.998V753.388H382.217V756.728H387.785V762.642H382.217V767.672C382.217 769.208 382.678 769.592 384.329 769.592H387.785V776.082ZM396.728 754.962H389.509V750.354H396.728V754.962ZM396.728 776.082H389.509V756.728H396.728V776.082ZM409.747 776.466C403.027 776.466 398.458 772.664 398.458 766.405C398.458 760.108 403.027 756.344 409.747 756.344C416.467 756.344 421.037 760.108 421.037 766.405C421.037 772.664 416.467 776.466 409.747 776.466ZM409.747 770.092C413.011 770.092 413.894 769.208 413.894 766.405C413.894 763.602 413.011 762.68 409.747 762.68C406.483 762.68 405.6 763.602 405.6 766.405C405.6 769.208 406.483 770.092 409.747 770.092ZM429.99 776.082H422.771V756.728H429.529V762.604H429.913C430.336 759.378 432.448 756.344 437.632 756.344C442.854 756.344 445.312 759.493 445.312 763.679V776.082H438.093V766.328C438.093 763.64 437.094 762.796 433.945 762.796C430.758 762.796 429.99 763.602 429.99 766.098V776.082Z" fill="url(#paint4_linear_26_2)"/>
</g>
<g filter="url(#filter4_d_26_2)">
<g filter="url(#filter5_b_26_2)">
<rect x="927" y="939" width="530" height="160" rx="33.6" fill="#606060" fill-opacity="0.2"/>
<rect x="928" y="940" width="528" height="158" rx="32.6" stroke="url(#paint5_linear_26_2)" stroke-width="2"/>
</g>
<path d="M1017.26 982.12H1023.48V1009H1017.26V982.12ZM1005.05 1009H998.831V982.12H1005.05V1009ZM1017.72 997.979H1004.59V992.718H1017.72V997.979ZM1039.67 1009.31C1037.32 1009.31 1035.24 1008.85 1033.45 1007.92C1031.69 1007 1030.32 1005.75 1029.34 1004.16C1028.37 1002.55 1027.88 1000.72 1027.88 998.67C1027.88 996.597 1028.36 994.766 1029.31 993.179C1030.28 991.566 1031.6 990.312 1033.26 989.416C1034.92 988.494 1036.81 988.034 1038.91 988.034C1040.93 988.034 1042.75 988.469 1044.36 989.339C1046 990.184 1047.29 991.413 1048.24 993.026C1049.18 994.613 1049.66 996.52 1049.66 998.747C1049.66 998.978 1049.64 999.246 1049.62 999.554C1049.59 999.835 1049.57 1000.1 1049.54 1000.36H1032.76V996.866H1046.39L1044.09 997.902C1044.09 996.827 1043.87 995.893 1043.44 995.099C1043 994.306 1042.4 993.691 1041.63 993.256C1040.86 992.795 1039.97 992.565 1038.94 992.565C1037.92 992.565 1037.01 992.795 1036.22 993.256C1035.45 993.691 1034.85 994.318 1034.41 995.138C1033.98 995.931 1033.76 996.878 1033.76 997.979V998.901C1033.76 1000.03 1034 1001.03 1034.49 1001.9C1035 1002.74 1035.71 1003.39 1036.6 1003.85C1037.52 1004.29 1038.6 1004.51 1039.83 1004.51C1040.93 1004.51 1041.89 1004.34 1042.71 1004.01C1043.55 1003.68 1044.32 1003.18 1045.01 1002.51L1048.2 1005.97C1047.25 1007.04 1046.06 1007.87 1044.63 1008.46C1043.19 1009.03 1041.54 1009.31 1039.67 1009.31ZM1065.76 1009V1004.97L1065.37 1004.08V996.866C1065.37 995.586 1064.97 994.587 1064.18 993.87C1063.41 993.154 1062.22 992.795 1060.61 992.795C1059.51 992.795 1058.42 992.974 1057.35 993.333C1056.3 993.666 1055.4 994.126 1054.66 994.715L1052.51 990.53C1053.63 989.736 1054.99 989.122 1056.58 988.686C1058.17 988.251 1059.78 988.034 1061.42 988.034C1064.57 988.034 1067.01 988.776 1068.75 990.261C1070.49 991.746 1071.36 994.062 1071.36 997.211V1009H1065.76ZM1059.46 1009.31C1057.85 1009.31 1056.46 1009.04 1055.31 1008.5C1054.16 1007.94 1053.28 1007.18 1052.66 1006.24C1052.05 1005.29 1051.74 1004.23 1051.74 1003.05C1051.74 1001.82 1052.03 1000.74 1052.62 999.822C1053.24 998.901 1054.2 998.184 1055.5 997.672C1056.81 997.134 1058.51 996.866 1060.61 996.866H1066.1V1000.36H1061.26C1059.85 1000.36 1058.88 1000.59 1058.34 1001.05C1057.83 1001.51 1057.58 1002.09 1057.58 1002.78C1057.58 1003.55 1057.87 1004.16 1058.46 1004.62C1059.07 1005.06 1059.91 1005.28 1060.96 1005.28C1061.95 1005.28 1062.85 1005.04 1063.64 1004.58C1064.44 1004.1 1065.01 1003.39 1065.37 1002.47L1066.29 1005.24C1065.86 1006.57 1065.06 1007.58 1063.91 1008.27C1062.76 1008.96 1061.28 1009.31 1059.46 1009.31ZM1076.78 1009V980.507H1082.77V1009H1076.78ZM1098.32 1009.31C1095.89 1009.31 1093.99 1008.69 1092.64 1007.46C1091.28 1006.21 1090.6 1004.35 1090.6 1001.9V983.771H1096.59V1001.82C1096.59 1002.69 1096.82 1003.37 1097.28 1003.85C1097.74 1004.32 1098.37 1004.55 1099.16 1004.55C1100.11 1004.55 1100.92 1004.29 1101.58 1003.78L1103.2 1008C1102.58 1008.44 1101.84 1008.77 1100.97 1009C1100.12 1009.2 1099.24 1009.31 1098.32 1009.31ZM1087.41 993.41V988.802H1101.74V993.41H1087.41ZM1119.12 988.034C1120.75 988.034 1122.21 988.366 1123.49 989.032C1124.8 989.672 1125.82 990.67 1126.56 992.027C1127.31 993.358 1127.68 995.074 1127.68 997.173V1009H1121.69V998.094C1121.69 996.43 1121.32 995.202 1120.57 994.408C1119.86 993.614 1118.83 993.218 1117.5 993.218C1116.56 993.218 1115.7 993.422 1114.93 993.832C1114.19 994.216 1113.6 994.818 1113.16 995.637C1112.75 996.456 1112.55 997.506 1112.55 998.786V1009H1106.56V980.507H1112.55V994.062L1111.2 992.334C1111.95 990.952 1113.01 989.89 1114.39 989.147C1115.77 988.405 1117.35 988.034 1119.12 988.034ZM1143.24 1009.31C1141.02 1009.31 1139.03 1008.86 1137.29 1007.96C1135.55 1007.04 1134.18 1005.77 1133.18 1004.16C1132.21 1002.55 1131.72 1000.72 1131.72 998.67C1131.72 996.597 1132.21 994.766 1133.18 993.179C1134.18 991.566 1135.55 990.312 1137.29 989.416C1139.03 988.494 1141.02 988.034 1143.24 988.034C1145.42 988.034 1147.31 988.494 1148.93 989.416C1150.54 990.312 1151.73 991.605 1152.5 993.294L1147.85 995.79C1147.31 994.818 1146.63 994.101 1145.82 993.64C1145.02 993.179 1144.15 992.949 1143.2 992.949C1142.18 992.949 1141.26 993.179 1140.44 993.64C1139.62 994.101 1138.97 994.754 1138.48 995.598C1138.02 996.443 1137.79 997.467 1137.79 998.67C1137.79 999.874 1138.02 1000.9 1138.48 1001.74C1138.97 1002.59 1139.62 1003.24 1140.44 1003.7C1141.26 1004.16 1142.18 1004.39 1143.2 1004.39C1144.15 1004.39 1145.02 1004.17 1145.82 1003.74C1146.63 1003.28 1147.31 1002.55 1147.85 1001.55L1152.5 1004.08C1151.73 1005.75 1150.54 1007.04 1148.93 1007.96C1147.31 1008.86 1145.42 1009.31 1143.24 1009.31ZM1168.62 1009V1004.97L1168.23 1004.08V996.866C1168.23 995.586 1167.84 994.587 1167.04 993.87C1166.28 993.154 1165.09 992.795 1163.47 992.795C1162.37 992.795 1161.28 992.974 1160.21 993.333C1159.16 993.666 1158.26 994.126 1157.52 994.715L1155.37 990.53C1156.5 989.736 1157.85 989.122 1159.44 988.686C1161.03 988.251 1162.64 988.034 1164.28 988.034C1167.43 988.034 1169.87 988.776 1171.61 990.261C1173.35 991.746 1174.22 994.062 1174.22 997.211V1009H1168.62ZM1162.32 1009.31C1160.71 1009.31 1159.33 1009.04 1158.17 1008.5C1157.02 1007.94 1156.14 1007.18 1155.52 1006.24C1154.91 1005.29 1154.6 1004.23 1154.6 1003.05C1154.6 1001.82 1154.9 1000.74 1155.49 999.822C1156.1 998.901 1157.06 998.184 1158.37 997.672C1159.67 997.134 1161.37 996.866 1163.47 996.866H1168.96V1000.36H1164.13C1162.72 1000.36 1161.74 1000.59 1161.21 1001.05C1160.69 1001.51 1160.44 1002.09 1160.44 1002.78C1160.44 1003.55 1160.73 1004.16 1161.32 1004.62C1161.94 1005.06 1162.77 1005.28 1163.82 1005.28C1164.82 1005.28 1165.71 1005.04 1166.51 1004.58C1167.3 1004.1 1167.88 1003.39 1168.23 1002.47L1169.16 1005.24C1168.72 1006.57 1167.93 1007.58 1166.77 1008.27C1165.62 1008.96 1164.14 1009.31 1162.32 1009.31ZM1179.65 1009V988.341H1185.37V994.178L1184.56 992.488C1185.18 991.029 1186.16 989.928 1187.52 989.186C1188.87 988.418 1190.53 988.034 1192.47 988.034V993.563C1192.22 993.538 1191.99 993.525 1191.78 993.525C1191.58 993.499 1191.36 993.486 1191.13 993.486C1189.49 993.486 1188.16 993.96 1187.13 994.907C1186.14 995.829 1185.64 997.275 1185.64 999.246V1009H1179.65ZM1206.14 1009.31C1203.78 1009.31 1201.71 1008.85 1199.92 1007.92C1198.15 1007 1196.78 1005.75 1195.81 1004.16C1194.83 1002.55 1194.35 1000.72 1194.35 998.67C1194.35 996.597 1194.82 994.766 1195.77 993.179C1196.74 991.566 1198.06 990.312 1199.72 989.416C1201.39 988.494 1203.27 988.034 1205.37 988.034C1207.39 988.034 1209.21 988.469 1210.82 989.339C1212.46 990.184 1213.75 991.413 1214.7 993.026C1215.65 994.613 1216.12 996.52 1216.12 998.747C1216.12 998.978 1216.11 999.246 1216.08 999.554C1216.06 999.835 1216.03 1000.1 1216.01 1000.36H1199.22V996.866H1212.86L1210.55 997.902C1210.55 996.827 1210.33 995.893 1209.9 995.099C1209.46 994.306 1208.86 993.691 1208.09 993.256C1207.33 992.795 1206.43 992.565 1205.41 992.565C1204.38 992.565 1203.47 992.795 1202.68 993.256C1201.91 993.691 1201.31 994.318 1200.88 995.138C1200.44 995.931 1200.22 996.878 1200.22 997.979V998.901C1200.22 1000.03 1200.47 1001.03 1200.95 1001.9C1201.46 1002.74 1202.17 1003.39 1203.06 1003.85C1203.99 1004.29 1205.06 1004.51 1206.29 1004.51C1207.39 1004.51 1208.35 1004.34 1209.17 1004.01C1210.01 1003.68 1210.78 1003.18 1211.47 1002.51L1214.66 1005.97C1213.71 1007.04 1212.52 1007.87 1211.09 1008.46C1209.66 1009.03 1208.01 1009.31 1206.14 1009.31ZM1216.08 1012.84L1228.75 976.667H1234.09L1221.41 1012.84H1216.08ZM1235.57 1009V982.12H1240.71L1252.16 1001.09H1249.43L1260.68 982.12H1265.79L1265.87 1009H1260.03L1259.99 991.067H1261.07L1252.08 1006.16H1249.28L1240.1 991.067H1241.41V1009H1235.57ZM1282.07 1009.31C1279.72 1009.31 1277.65 1008.85 1275.85 1007.92C1274.09 1007 1272.72 1005.75 1271.74 1004.16C1270.77 1002.55 1270.29 1000.72 1270.29 998.67C1270.29 996.597 1270.76 994.766 1271.71 993.179C1272.68 991.566 1274 990.312 1275.66 989.416C1277.33 988.494 1279.21 988.034 1281.31 988.034C1283.33 988.034 1285.15 988.469 1286.76 989.339C1288.4 990.184 1289.69 991.413 1290.64 993.026C1291.58 994.613 1292.06 996.52 1292.06 998.747C1292.06 998.978 1292.05 999.246 1292.02 999.554C1291.99 999.835 1291.97 1000.1 1291.94 1000.36H1275.16V996.866H1288.79L1286.49 997.902C1286.49 996.827 1286.27 995.893 1285.84 995.099C1285.4 994.306 1284.8 993.691 1284.03 993.256C1283.26 992.795 1282.37 992.565 1281.34 992.565C1280.32 992.565 1279.41 992.795 1278.62 993.256C1277.85 993.691 1277.25 994.318 1276.81 995.138C1276.38 995.931 1276.16 996.878 1276.16 997.979V998.901C1276.16 1000.03 1276.4 1001.03 1276.89 1001.9C1277.4 1002.74 1278.11 1003.39 1279 1003.85C1279.92 1004.29 1281 1004.51 1282.23 1004.51C1283.33 1004.51 1284.29 1004.34 1285.11 1004.01C1285.95 1003.68 1286.72 1003.18 1287.41 1002.51L1290.6 1005.97C1289.65 1007.04 1288.46 1007.87 1287.03 1008.46C1285.59 1009.03 1283.94 1009.31 1282.07 1009.31ZM1304.92 1009.31C1302.97 1009.31 1301.22 1008.87 1299.66 1008C1298.09 1007.11 1296.85 1005.86 1295.93 1004.28C1295.03 1002.69 1294.59 1000.82 1294.59 998.67C1294.59 996.494 1295.03 994.613 1295.93 993.026C1296.85 991.438 1298.09 990.21 1299.66 989.339C1301.22 988.469 1302.97 988.034 1304.92 988.034C1306.66 988.034 1308.18 988.418 1309.49 989.186C1310.79 989.954 1311.8 991.118 1312.52 992.68C1313.24 994.242 1313.59 996.238 1313.59 998.67C1313.59 1001.08 1313.25 1003.07 1312.56 1004.66C1311.87 1006.22 1310.87 1007.39 1309.56 1008.16C1308.28 1008.92 1306.73 1009.31 1304.92 1009.31ZM1305.95 1004.39C1306.93 1004.39 1307.81 1004.16 1308.6 1003.7C1309.4 1003.24 1310.02 1002.59 1310.48 1001.74C1310.97 1000.87 1311.21 999.848 1311.21 998.67C1311.21 997.467 1310.97 996.443 1310.48 995.598C1310.02 994.754 1309.4 994.101 1308.6 993.64C1307.81 993.179 1306.93 992.949 1305.95 992.949C1304.95 992.949 1304.06 993.179 1303.27 993.64C1302.47 994.101 1301.83 994.754 1301.35 995.598C1300.88 996.443 1300.65 997.467 1300.65 998.67C1300.65 999.848 1300.88 1000.87 1301.35 1001.74C1301.83 1002.59 1302.47 1003.24 1303.27 1003.7C1304.06 1004.16 1304.95 1004.39 1305.95 1004.39ZM1311.37 1009V1004.78L1311.48 998.632L1311.1 992.526V980.507H1317.09V1009H1311.37ZM1322.63 1009V988.341H1328.62V1009H1322.63ZM1325.63 985.461C1324.53 985.461 1323.63 985.141 1322.94 984.501C1322.25 983.861 1321.9 983.067 1321.9 982.12C1321.9 981.173 1322.25 980.379 1322.94 979.739C1323.63 979.099 1324.53 978.779 1325.63 978.779C1326.73 978.779 1327.63 979.086 1328.32 979.701C1329.01 980.29 1329.35 981.058 1329.35 982.005C1329.35 983.003 1329.01 983.835 1328.32 984.501C1327.65 985.141 1326.76 985.461 1325.63 985.461ZM1344.17 1009.31C1341.94 1009.31 1339.96 1008.86 1338.22 1007.96C1336.47 1007.04 1335.11 1005.77 1334.11 1004.16C1333.13 1002.55 1332.65 1000.72 1332.65 998.67C1332.65 996.597 1333.13 994.766 1334.11 993.179C1335.11 991.566 1336.47 990.312 1338.22 989.416C1339.96 988.494 1341.94 988.034 1344.17 988.034C1346.34 988.034 1348.24 988.494 1349.85 989.416C1351.46 990.312 1352.65 991.605 1353.42 993.294L1348.78 995.79C1348.24 994.818 1347.56 994.101 1346.74 993.64C1345.95 993.179 1345.08 992.949 1344.13 992.949C1343.11 992.949 1342.18 993.179 1341.36 993.64C1340.55 994.101 1339.89 994.754 1339.41 995.598C1338.95 996.443 1338.71 997.467 1338.71 998.67C1338.71 999.874 1338.95 1000.9 1339.41 1001.74C1339.89 1002.59 1340.55 1003.24 1341.36 1003.7C1342.18 1004.16 1343.11 1004.39 1344.13 1004.39C1345.08 1004.39 1345.95 1004.17 1346.74 1003.74C1347.56 1003.28 1348.24 1002.55 1348.78 1001.55L1353.42 1004.08C1352.65 1005.75 1351.46 1007.04 1349.85 1007.96C1348.24 1008.86 1346.34 1009.31 1344.17 1009.31ZM1369.54 1009V1004.97L1369.16 1004.08V996.866C1369.16 995.586 1368.76 994.587 1367.97 993.87C1367.2 993.154 1366.01 992.795 1364.4 992.795C1363.3 992.795 1362.21 992.974 1361.13 993.333C1360.08 993.666 1359.19 994.126 1358.45 994.715L1356.3 990.53C1357.42 989.736 1358.78 989.122 1360.37 988.686C1361.95 988.251 1363.57 988.034 1365.2 988.034C1368.35 988.034 1370.8 988.776 1372.54 990.261C1374.28 991.746 1375.15 994.062 1375.15 997.211V1009H1369.54ZM1363.25 1009.31C1361.63 1009.31 1360.25 1009.04 1359.1 1008.5C1357.95 1007.94 1357.06 1007.18 1356.45 1006.24C1355.83 1005.29 1355.53 1004.23 1355.53 1003.05C1355.53 1001.82 1355.82 1000.74 1356.41 999.822C1357.02 998.901 1357.98 998.184 1359.29 997.672C1360.6 997.134 1362.3 996.866 1364.4 996.866H1369.89V1000.36H1365.05C1363.64 1000.36 1362.67 1000.59 1362.13 1001.05C1361.62 1001.51 1361.36 1002.09 1361.36 1002.78C1361.36 1003.55 1361.66 1004.16 1362.25 1004.62C1362.86 1005.06 1363.69 1005.28 1364.74 1005.28C1365.74 1005.28 1366.64 1005.04 1367.43 1004.58C1368.22 1004.1 1368.8 1003.39 1369.16 1002.47L1370.08 1005.24C1369.65 1006.57 1368.85 1007.58 1367.7 1008.27C1366.55 1008.96 1365.06 1009.31 1363.25 1009.31ZM1380.57 1009V980.507H1386.56V1009H1380.57ZM1087.5 1055V1028.12H1093.72V1055H1087.5ZM1112.23 1034.03C1113.87 1034.03 1115.33 1034.37 1116.61 1035.03C1117.92 1035.67 1118.94 1036.67 1119.68 1038.03C1120.43 1039.36 1120.8 1041.07 1120.8 1043.17V1055H1114.81V1044.09C1114.81 1042.43 1114.44 1041.2 1113.69 1040.41C1112.98 1039.61 1111.95 1039.22 1110.62 1039.22C1109.67 1039.22 1108.82 1039.42 1108.05 1039.83C1107.31 1040.22 1106.72 1040.82 1106.28 1041.64C1105.87 1042.46 1105.67 1043.51 1105.67 1044.79V1055H1099.68V1034.34H1105.4V1040.06L1104.32 1038.33C1105.07 1036.95 1106.13 1035.89 1107.51 1035.15C1108.89 1034.4 1110.47 1034.03 1112.23 1034.03ZM1138.78 1034.03C1140.42 1034.03 1141.88 1034.37 1143.16 1035.03C1144.47 1035.67 1145.49 1036.67 1146.23 1038.03C1146.98 1039.36 1147.35 1041.07 1147.35 1043.17V1055H1141.36V1044.09C1141.36 1042.43 1140.99 1041.2 1140.24 1040.41C1139.53 1039.61 1138.5 1039.22 1137.17 1039.22C1136.22 1039.22 1135.37 1039.42 1134.6 1039.83C1133.86 1040.22 1133.27 1040.82 1132.83 1041.64C1132.42 1042.46 1132.22 1043.51 1132.22 1044.79V1055H1126.23V1034.34H1131.95V1040.06L1130.87 1038.33C1131.62 1036.95 1132.68 1035.89 1134.06 1035.15C1135.44 1034.4 1137.02 1034.03 1138.78 1034.03ZM1162.76 1055.31C1160.56 1055.31 1158.6 1054.85 1156.88 1053.92C1155.19 1053 1153.85 1051.75 1152.85 1050.16C1151.88 1048.55 1151.39 1046.72 1151.39 1044.67C1151.39 1042.6 1151.88 1040.77 1152.85 1039.18C1153.85 1037.57 1155.19 1036.31 1156.88 1035.42C1158.6 1034.49 1160.56 1034.03 1162.76 1034.03C1164.93 1034.03 1166.88 1034.49 1168.59 1035.42C1170.31 1036.31 1171.65 1037.55 1172.63 1039.14C1173.6 1040.73 1174.09 1042.57 1174.09 1044.67C1174.09 1046.72 1173.6 1048.55 1172.63 1050.16C1171.65 1051.75 1170.31 1053 1168.59 1053.92C1166.88 1054.85 1164.93 1055.31 1162.76 1055.31ZM1162.76 1050.39C1163.76 1050.39 1164.65 1050.16 1165.45 1049.7C1166.24 1049.24 1166.87 1048.59 1167.33 1047.74C1167.79 1046.87 1168.02 1045.85 1168.02 1044.67C1168.02 1043.47 1167.79 1042.44 1167.33 1041.6C1166.87 1040.75 1166.24 1040.1 1165.45 1039.64C1164.65 1039.18 1163.76 1038.95 1162.76 1038.95C1161.76 1038.95 1160.86 1039.18 1160.07 1039.64C1159.28 1040.1 1158.64 1040.75 1158.15 1041.6C1157.69 1042.44 1157.46 1043.47 1157.46 1044.67C1157.46 1045.85 1157.69 1046.87 1158.15 1047.74C1158.64 1048.59 1159.28 1049.24 1160.07 1049.7C1160.86 1050.16 1161.76 1050.39 1162.76 1050.39ZM1183.13 1055L1174.46 1034.34H1180.64L1187.86 1052.12H1184.78L1192.27 1034.34H1198.03L1189.32 1055H1183.13ZM1212.47 1055V1050.97L1212.09 1050.08V1042.87C1212.09 1041.59 1211.69 1040.59 1210.9 1039.87C1210.13 1039.15 1208.94 1038.8 1207.33 1038.8C1206.23 1038.8 1205.14 1038.97 1204.06 1039.33C1203.02 1039.67 1202.12 1040.13 1201.38 1040.72L1199.23 1036.53C1200.35 1035.74 1201.71 1035.12 1203.3 1034.69C1204.88 1034.25 1206.5 1034.03 1208.14 1034.03C1211.28 1034.03 1213.73 1034.78 1215.47 1036.26C1217.21 1037.75 1218.08 1040.06 1218.08 1043.21V1055H1212.47ZM1206.18 1055.31C1204.56 1055.31 1203.18 1055.04 1202.03 1054.5C1200.88 1053.94 1199.99 1053.18 1199.38 1052.24C1198.77 1051.29 1198.46 1050.23 1198.46 1049.05C1198.46 1047.82 1198.75 1046.74 1199.34 1045.82C1199.96 1044.9 1200.92 1044.18 1202.22 1043.67C1203.53 1043.13 1205.23 1042.87 1207.33 1042.87H1212.82V1046.36H1207.98C1206.57 1046.36 1205.6 1046.59 1205.06 1047.05C1204.55 1047.51 1204.3 1048.09 1204.3 1048.78C1204.3 1049.55 1204.59 1050.16 1205.18 1050.62C1205.79 1051.06 1206.62 1051.28 1207.67 1051.28C1208.67 1051.28 1209.57 1051.04 1210.36 1050.58C1211.16 1050.1 1211.73 1049.39 1212.09 1048.47L1213.01 1051.24C1212.58 1052.57 1211.78 1053.58 1210.63 1054.27C1209.48 1054.96 1207.99 1055.31 1206.18 1055.31ZM1231.95 1055.31C1229.52 1055.31 1227.62 1054.69 1226.27 1053.46C1224.91 1052.21 1224.23 1050.35 1224.23 1047.9V1029.77H1230.22V1047.82C1230.22 1048.69 1230.45 1049.37 1230.91 1049.85C1231.37 1050.32 1232 1050.55 1232.8 1050.55C1233.74 1050.55 1234.55 1050.29 1235.21 1049.78L1236.83 1054C1236.21 1054.44 1235.47 1054.77 1234.6 1055C1233.76 1055.2 1232.87 1055.31 1231.95 1055.31ZM1221.04 1039.41V1034.8H1235.37V1039.41H1221.04ZM1240.19 1055V1034.34H1246.18V1055H1240.19ZM1243.19 1031.46C1242.08 1031.46 1241.19 1031.14 1240.5 1030.5C1239.81 1029.86 1239.46 1029.07 1239.46 1028.12C1239.46 1027.17 1239.81 1026.38 1240.5 1025.74C1241.19 1025.1 1242.08 1024.78 1243.19 1024.78C1244.29 1024.78 1245.18 1025.09 1245.87 1025.7C1246.56 1026.29 1246.91 1027.06 1246.91 1028C1246.91 1029 1246.56 1029.84 1245.87 1030.5C1245.21 1031.14 1244.31 1031.46 1243.19 1031.46ZM1261.57 1055.31C1259.37 1055.31 1257.41 1054.85 1255.7 1053.92C1254.01 1053 1252.66 1051.75 1251.66 1050.16C1250.69 1048.55 1250.2 1046.72 1250.2 1044.67C1250.2 1042.6 1250.69 1040.77 1251.66 1039.18C1252.66 1037.57 1254.01 1036.31 1255.7 1035.42C1257.41 1034.49 1259.37 1034.03 1261.57 1034.03C1263.75 1034.03 1265.69 1034.49 1267.41 1035.42C1269.12 1036.31 1270.47 1037.55 1271.44 1039.14C1272.41 1040.73 1272.9 1042.57 1272.9 1044.67C1272.9 1046.72 1272.41 1048.55 1271.44 1050.16C1270.47 1051.75 1269.12 1053 1267.41 1053.92C1265.69 1054.85 1263.75 1055.31 1261.57 1055.31ZM1261.57 1050.39C1262.57 1050.39 1263.46 1050.16 1264.26 1049.7C1265.05 1049.24 1265.68 1048.59 1266.14 1047.74C1266.6 1046.87 1266.83 1045.85 1266.83 1044.67C1266.83 1043.47 1266.6 1042.44 1266.14 1041.6C1265.68 1040.75 1265.05 1040.1 1264.26 1039.64C1263.46 1039.18 1262.57 1038.95 1261.57 1038.95C1260.57 1038.95 1259.68 1039.18 1258.88 1039.64C1258.09 1040.1 1257.45 1040.75 1256.96 1041.6C1256.5 1042.44 1256.27 1043.47 1256.27 1044.67C1256.27 1045.85 1256.5 1046.87 1256.96 1047.74C1257.45 1048.59 1258.09 1049.24 1258.88 1049.7C1259.68 1050.16 1260.57 1050.39 1261.57 1050.39ZM1289.46 1034.03C1291.1 1034.03 1292.56 1034.37 1293.84 1035.03C1295.14 1035.67 1296.17 1036.67 1296.91 1038.03C1297.65 1039.36 1298.02 1041.07 1298.02 1043.17V1055H1292.03V1044.09C1292.03 1042.43 1291.66 1041.2 1290.92 1040.41C1290.2 1039.61 1289.18 1039.22 1287.85 1039.22C1286.9 1039.22 1286.04 1039.42 1285.27 1039.83C1284.53 1040.22 1283.94 1040.82 1283.51 1041.64C1283.1 1042.46 1282.89 1043.51 1282.89 1044.79V1055H1276.9V1034.34H1282.62V1040.06L1281.55 1038.33C1282.29 1036.95 1283.35 1035.89 1284.74 1035.15C1286.12 1034.4 1287.69 1034.03 1289.46 1034.03Z" fill="url(#paint6_linear_26_2)"/>
</g>
<g filter="url(#filter6_d_26_2)">
<g filter="url(#filter7_b_26_2)">
<rect x="9" y="1193" width="530" height="160" rx="33.6" fill="#606060" fill-opacity="0.2"/>
<rect x="10" y="1194" width="528" height="158" rx="32.6" stroke="url(#paint7_linear_26_2)" stroke-width="2"/>
</g>
<path d="M89.3069 1284.38C81.4349 1284.38 76.6349 1281.58 76.6349 1275.05V1274.82H83.8541V1275.63C83.8541 1277.36 84.4685 1277.82 89.3069 1277.82C93.6845 1277.82 94.1453 1277.47 94.1453 1276.32C94.1453 1275.4 93.6461 1275.01 91.5341 1274.75L83.4701 1273.67C78.6701 1273.02 76.2509 1270.44 76.2509 1266.3C76.2509 1262.19 79.4381 1257.89 88.7309 1257.89C96.9101 1257.89 100.827 1261.46 100.827 1267.22V1267.45H93.6077V1266.87C93.6077 1265.03 92.8013 1264.42 87.9629 1264.42C84.2765 1264.42 83.4701 1264.92 83.4701 1266.03C83.4701 1266.84 83.9309 1267.22 85.3133 1267.41L93.3773 1268.6C99.6749 1269.52 101.364 1272.75 101.364 1276.05C101.364 1280.47 97.9853 1284.38 89.3069 1284.38ZM110.296 1290.53H103.077V1264.65H109.835V1269.87H110.219C110.834 1266.03 113.138 1264.26 117.669 1264.26C123.582 1264.26 126.846 1268.06 126.846 1274.32C126.846 1280.62 123.659 1284.38 117.976 1284.38C113.406 1284.38 111.256 1282.23 110.68 1279.01H110.296V1290.53ZM110.296 1274.55C110.296 1277.28 111.832 1277.82 115.058 1277.82C118.398 1277.82 119.55 1276.9 119.55 1274.32C119.55 1271.75 118.398 1270.87 115.058 1270.87C111.832 1270.87 110.296 1271.48 110.296 1274.28V1274.55ZM139.478 1284.38C132.758 1284.38 128.188 1280.58 128.188 1274.32C128.188 1268.03 132.758 1264.26 139.478 1264.26C146.198 1264.26 150.768 1268.03 150.768 1274.32C150.768 1280.58 146.198 1284.38 139.478 1284.38ZM139.478 1278.01C142.742 1278.01 143.625 1277.13 143.625 1274.32C143.625 1271.52 142.742 1270.6 139.478 1270.6C136.214 1270.6 135.331 1271.52 135.331 1274.32C135.331 1277.13 136.214 1278.01 139.478 1278.01ZM159.721 1284H152.502V1264.65H159.26V1270.52H159.644C160.067 1267.3 162.179 1264.26 167.363 1264.26C172.585 1264.26 175.043 1267.41 175.043 1271.6V1284H167.824V1274.25C167.824 1271.56 166.825 1270.71 163.676 1270.71C160.489 1270.71 159.721 1271.52 159.721 1274.02V1284ZM187.583 1284.38C180.748 1284.38 177.1 1281.73 177.1 1277.28V1277.13H184.319V1277.51C184.319 1278.59 185.011 1278.7 187.622 1278.7C190.118 1278.7 190.502 1278.43 190.502 1277.78C190.502 1277.16 190.195 1277.01 188.39 1276.82L182.783 1276.2C178.79 1275.78 176.639 1273.9 176.639 1270.64C176.639 1267.22 179.366 1264.26 186.623 1264.26C193.343 1264.26 196.915 1266.68 196.915 1271.44V1271.6H189.695V1271.37C189.695 1270.37 189.311 1269.91 186.393 1269.91C184.051 1269.91 183.743 1270.21 183.743 1270.94C183.743 1271.48 184.051 1271.75 186.316 1271.98L190.156 1272.4C195.801 1273.02 197.606 1274.9 197.606 1278.16C197.606 1281.77 193.996 1284.38 187.583 1284.38ZM210.053 1284.38C203.333 1284.38 198.763 1280.58 198.763 1274.32C198.763 1268.03 203.333 1264.26 210.053 1264.26C216.773 1264.26 221.343 1268.03 221.343 1274.32C221.343 1280.58 216.773 1284.38 210.053 1284.38ZM210.053 1278.01C213.317 1278.01 214.2 1277.13 214.2 1274.32C214.2 1271.52 213.317 1270.6 210.053 1270.6C206.789 1270.6 205.906 1271.52 205.906 1274.32C205.906 1277.13 206.789 1278.01 210.053 1278.01ZM230.296 1284H223.077V1264.65H229.835V1269.72H230.219C230.757 1266.53 232.754 1264.26 236.594 1264.26C240.856 1264.26 242.546 1267.07 242.546 1270.94V1274.78H235.327V1272.52C235.327 1270.91 234.712 1270.33 232.831 1270.33C230.872 1270.33 230.296 1270.91 230.296 1272.44V1284ZM266.681 1284H249.439V1258.27H265.798C271.366 1258.27 274.131 1260.46 274.131 1264.49C274.131 1267.8 272.403 1270.14 267.718 1270.33V1270.71C272.863 1270.91 275.321 1273.29 275.321 1276.86C275.321 1281.2 272.825 1284 266.681 1284ZM256.62 1264.76V1268.03H265.03C266.489 1268.03 266.911 1267.6 266.911 1266.41C266.911 1265.22 266.335 1264.76 264.838 1264.76H256.62ZM256.62 1273.94V1277.51H265.759C267.487 1277.51 268.025 1277.16 268.025 1275.71C268.025 1274.28 267.526 1273.94 265.759 1273.94H256.62ZM283.111 1284.38C278.734 1284.38 276.276 1282.39 276.276 1279.08C276.276 1276.36 278.158 1274.4 282.535 1273.98L290.407 1273.21V1272.83C290.407 1270.87 289.562 1270.56 286.99 1270.56C284.609 1270.56 283.879 1271.02 283.879 1272.63V1272.79H276.66V1272.71C276.66 1267.56 280.961 1264.26 287.527 1264.26C294.286 1264.26 297.55 1267.56 297.55 1272.98V1284H290.791V1279.93H290.407C289.678 1282.66 287.297 1284.38 283.111 1284.38ZM283.534 1278.62C283.534 1279.24 284.148 1279.35 285.262 1279.35C288.756 1279.35 290.177 1278.93 290.369 1277.2L284.455 1277.89C283.802 1277.97 283.534 1278.2 283.534 1278.62ZM310.096 1284.38C303.261 1284.38 299.613 1281.73 299.613 1277.28V1277.13H306.832V1277.51C306.832 1278.59 307.523 1278.7 310.134 1278.7C312.63 1278.7 313.014 1278.43 313.014 1277.78C313.014 1277.16 312.707 1277.01 310.902 1276.82L305.296 1276.2C301.302 1275.78 299.152 1273.9 299.152 1270.64C299.152 1267.22 301.878 1264.26 309.136 1264.26C315.856 1264.26 319.427 1266.68 319.427 1271.44V1271.6H312.208V1271.37C312.208 1270.37 311.824 1269.91 308.906 1269.91C306.563 1269.91 306.256 1270.21 306.256 1270.94C306.256 1271.48 306.563 1271.75 308.829 1271.98L312.669 1272.4C318.314 1273.02 320.118 1274.9 320.118 1278.16C320.118 1281.77 316.509 1284.38 310.096 1284.38ZM332.642 1284.38C326.076 1284.38 321.468 1281.58 321.468 1274.32C321.468 1268.03 326.038 1264.26 332.489 1264.26C339.17 1264.26 343.433 1267.6 343.433 1273.82C343.433 1274.48 343.394 1274.98 343.318 1275.67H328.15C328.265 1278.01 329.302 1278.66 332.374 1278.66C335.292 1278.66 336.06 1278.16 336.06 1277.01V1276.59H343.279V1277.05C343.279 1281.35 339.17 1284.38 332.642 1284.38ZM332.335 1269.79C329.686 1269.79 328.572 1270.37 328.265 1272.02H336.444C336.175 1270.37 335.023 1269.79 332.335 1269.79ZM354.158 1284.38C348.245 1284.38 344.981 1280.58 344.981 1274.32C344.981 1268.03 348.168 1264.26 353.851 1264.26C358.421 1264.26 360.571 1266.41 361.147 1269.64H361.531V1258.27H368.75V1284H361.992V1278.78H361.608C360.993 1282.62 358.689 1284.38 354.158 1284.38ZM352.277 1274.32C352.277 1276.9 353.429 1277.78 356.769 1277.78C359.995 1277.78 361.531 1277.16 361.531 1274.36V1274.09C361.531 1271.37 359.995 1270.83 356.769 1270.83C353.429 1270.83 352.277 1271.75 352.277 1274.32ZM390.239 1284.38C381.291 1284.38 376.031 1279.16 376.031 1271.14C376.031 1263.11 381.291 1257.89 390.239 1257.89C398.879 1257.89 404.063 1262 404.063 1268.87V1269.52H395.999V1268.87C395.999 1265.95 394.616 1264.8 390.354 1264.8C385.131 1264.8 383.711 1266.03 383.711 1271.14C383.711 1276.24 385.131 1277.47 390.354 1277.47C394.616 1277.47 395.999 1276.32 395.999 1273.4V1272.75H404.063V1273.4C404.063 1280.28 398.879 1284.38 390.239 1284.38ZM412.224 1284.38C407.846 1284.38 405.389 1282.39 405.389 1279.08C405.389 1276.36 407.27 1274.4 411.648 1273.98L419.52 1273.21V1272.83C419.52 1270.87 418.675 1270.56 416.102 1270.56C413.721 1270.56 412.992 1271.02 412.992 1272.63V1272.79H405.773V1272.71C405.773 1267.56 410.073 1264.26 416.64 1264.26C423.398 1264.26 426.662 1267.56 426.662 1272.98V1284H419.904V1279.93H419.52C418.79 1282.66 416.409 1284.38 412.224 1284.38ZM412.646 1278.62C412.646 1279.24 413.261 1279.35 414.374 1279.35C417.869 1279.35 419.289 1278.93 419.481 1277.2L413.568 1277.89C412.915 1277.97 412.646 1278.2 412.646 1278.62ZM439.208 1284.38C432.373 1284.38 428.725 1281.73 428.725 1277.28V1277.13H435.944V1277.51C435.944 1278.59 436.636 1278.7 439.247 1278.7C441.743 1278.7 442.127 1278.43 442.127 1277.78C442.127 1277.16 441.82 1277.01 440.015 1276.82L434.408 1276.2C430.415 1275.78 428.264 1273.9 428.264 1270.64C428.264 1267.22 430.991 1264.26 438.248 1264.26C444.968 1264.26 448.54 1266.68 448.54 1271.44V1271.6H441.32V1271.37C441.32 1270.37 440.936 1269.91 438.018 1269.91C435.676 1269.91 435.368 1270.21 435.368 1270.94C435.368 1271.48 435.676 1271.75 437.941 1271.98L441.781 1272.4C447.426 1273.02 449.231 1274.9 449.231 1278.16C449.231 1281.77 445.621 1284.38 439.208 1284.38ZM461.755 1284.38C455.189 1284.38 450.581 1281.58 450.581 1274.32C450.581 1268.03 455.15 1264.26 461.601 1264.26C468.283 1264.26 472.545 1267.6 472.545 1273.82C472.545 1274.48 472.507 1274.98 472.43 1275.67H457.262C457.377 1278.01 458.414 1278.66 461.486 1278.66C464.405 1278.66 465.173 1278.16 465.173 1277.01V1276.59H472.392V1277.05C472.392 1281.35 468.283 1284.38 461.755 1284.38ZM461.448 1269.79C458.798 1269.79 457.685 1270.37 457.377 1272.02H465.557C465.288 1270.37 464.136 1269.79 461.448 1269.79Z" fill="url(#paint8_linear_26_2)"/>
</g>
<g filter="url(#filter8_d_26_2)">
<g filter="url(#filter9_b_26_2)">
<rect x="927" y="1449" width="530" height="160" rx="33.6" fill="#606060" fill-opacity="0.2"/>
<rect x="928" y="1450" width="528" height="158" rx="32.6" stroke="url(#paint9_linear_26_2)" stroke-width="2"/>
</g>
<path d="M1009.69 1540H996.674V1514.27H1009.69C1018.18 1514.27 1023.55 1519 1023.55 1527.14C1023.55 1535.28 1018.18 1540 1009.69 1540ZM1009.69 1520.76H1003.89V1533.51H1009.69C1014.26 1533.51 1015.84 1532.93 1015.84 1527.14C1015.84 1521.34 1014.26 1520.76 1009.69 1520.76ZM1032.68 1518.88H1025.46V1514.27H1032.68V1518.88ZM1032.68 1540H1025.46V1520.65H1032.68V1540ZM1051.16 1540H1042.25L1033.65 1520.65H1041.71L1046.55 1532.97H1047.05L1051.92 1520.65H1059.83L1051.16 1540ZM1071.58 1540.38C1065.01 1540.38 1060.41 1537.58 1060.41 1530.32C1060.41 1524.03 1064.98 1520.26 1071.43 1520.26C1078.11 1520.26 1082.37 1523.6 1082.37 1529.82C1082.37 1530.48 1082.33 1530.98 1082.26 1531.67H1067.09C1067.2 1534.01 1068.24 1534.66 1071.31 1534.66C1074.23 1534.66 1075 1534.16 1075 1533.01V1532.59H1082.22V1533.05C1082.22 1537.35 1078.11 1540.38 1071.58 1540.38ZM1071.27 1525.79C1068.62 1525.79 1067.51 1526.37 1067.2 1528.02H1075.38C1075.11 1526.37 1073.96 1525.79 1071.27 1525.79ZM1091.52 1540H1084.3V1520.65H1091.06V1525.72H1091.44C1091.98 1522.53 1093.98 1520.26 1097.82 1520.26C1102.08 1520.26 1103.77 1523.07 1103.77 1526.94V1530.78H1096.55V1528.52C1096.55 1526.91 1095.94 1526.33 1094.06 1526.33C1092.1 1526.33 1091.52 1526.91 1091.52 1528.44V1540ZM1115.71 1540.38C1108.87 1540.38 1105.23 1537.73 1105.23 1533.28V1533.13H1112.44V1533.51C1112.44 1534.59 1113.14 1534.7 1115.75 1534.7C1118.24 1534.7 1118.63 1534.43 1118.63 1533.78C1118.63 1533.16 1118.32 1533.01 1116.51 1532.82L1110.91 1532.2C1106.91 1531.78 1104.76 1529.9 1104.76 1526.64C1104.76 1523.22 1107.49 1520.26 1114.75 1520.26C1121.47 1520.26 1125.04 1522.68 1125.04 1527.44V1527.6H1117.82V1527.37C1117.82 1526.37 1117.44 1525.91 1114.52 1525.91C1112.18 1525.91 1111.87 1526.21 1111.87 1526.94C1111.87 1527.48 1112.18 1527.75 1114.44 1527.98L1118.28 1528.4C1123.93 1529.02 1125.73 1530.9 1125.73 1534.16C1125.73 1537.77 1122.12 1540.38 1115.71 1540.38ZM1134.68 1518.88H1127.46V1514.27H1134.68V1518.88ZM1134.68 1540H1127.46V1520.65H1134.68V1540ZM1151.47 1540H1146.4C1141.56 1540 1138.68 1537.66 1138.68 1532.63V1526.56H1135.84V1520.65H1138.68V1517.31H1145.9V1520.65H1151.47V1526.56H1145.9V1531.59C1145.9 1533.13 1146.36 1533.51 1148.01 1533.51H1151.47V1540ZM1157.45 1546.53H1153.96V1540H1159.56C1160.14 1540 1160.6 1539.92 1160.91 1539.77L1151.65 1520.65H1159.87L1163.21 1528.25L1164.59 1532.7H1165.09L1166.36 1528.17L1169.24 1520.65H1177.3L1168.13 1540.77C1166.05 1545.34 1163.1 1546.53 1157.45 1546.53ZM1195.36 1540.38C1187.48 1540.38 1183.07 1538.12 1183.07 1532.78C1183.07 1528.83 1185.72 1526.87 1189.52 1526.6V1526.1C1185.99 1525.79 1184.26 1523.49 1184.26 1520.65C1184.26 1515.77 1188.18 1513.73 1194.93 1513.73H1198.97V1520.3H1193.9C1192.25 1520.3 1191.48 1520.49 1191.48 1522.14C1191.48 1523.72 1192.28 1523.91 1193.7 1523.91H1200.39V1520.65H1207.49V1523.91H1211.22V1529.82H1207.49V1530.48C1207.49 1536.51 1204.76 1540.38 1195.36 1540.38ZM1195.62 1533.82C1199.81 1533.82 1200.39 1533.59 1200.39 1530.86V1529.82H1192.74C1191.29 1529.82 1190.4 1530.13 1190.4 1531.82C1190.4 1533.36 1191.29 1533.82 1195.62 1533.82ZM1225.73 1540H1218.51V1514.27H1225.73V1540ZM1235.26 1540H1228.04V1520.65H1234.8V1526.52H1235.18C1235.6 1523.3 1237.72 1520.26 1242.9 1520.26C1248.12 1520.26 1250.58 1523.41 1250.58 1527.6V1540H1243.36V1530.25C1243.36 1527.56 1242.36 1526.71 1239.21 1526.71C1236.03 1526.71 1235.26 1527.52 1235.26 1530.02V1540ZM1263.58 1540.38C1256.71 1540.38 1252.33 1536.58 1252.33 1530.32C1252.33 1524.03 1256.71 1520.26 1263.58 1520.26C1270.19 1520.26 1274.41 1523.64 1274.41 1528.83V1529.44H1267.23V1529.13C1267.23 1527.14 1265.77 1526.71 1263.43 1526.71C1260.78 1526.71 1259.51 1527.29 1259.51 1530.32C1259.51 1533.32 1260.78 1533.89 1263.43 1533.89C1265.77 1533.89 1267.23 1533.51 1267.23 1531.51V1531.17H1274.41V1531.82C1274.41 1536.97 1270.19 1540.38 1263.58 1540.38ZM1283.56 1540H1276.34V1514.27H1283.56V1540ZM1293.81 1540.38C1288.4 1540.38 1285.86 1537.24 1285.86 1533.05V1520.65H1293.08V1530.4C1293.08 1533.09 1294.12 1533.93 1297.42 1533.93C1300.76 1533.93 1301.57 1533.13 1301.57 1530.63V1520.65H1308.79V1540H1302.03V1534.12H1301.65C1301.22 1537.35 1299.07 1540.38 1293.81 1540.38ZM1321.36 1540.38C1314.52 1540.38 1310.88 1537.73 1310.88 1533.28V1533.13H1318.09V1533.51C1318.09 1534.59 1318.79 1534.7 1321.4 1534.7C1323.89 1534.7 1324.28 1534.43 1324.28 1533.78C1324.28 1533.16 1323.97 1533.01 1322.16 1532.82L1316.56 1532.2C1312.56 1531.78 1310.41 1529.9 1310.41 1526.64C1310.41 1523.22 1313.14 1520.26 1320.4 1520.26C1327.12 1520.26 1330.69 1522.68 1330.69 1527.44V1527.6H1323.47V1527.37C1323.47 1526.37 1323.09 1525.91 1320.17 1525.91C1317.83 1525.91 1317.52 1526.21 1317.52 1526.94C1317.52 1527.48 1317.83 1527.75 1320.09 1527.98L1323.93 1528.4C1329.58 1529.02 1331.38 1530.9 1331.38 1534.16C1331.38 1537.77 1327.77 1540.38 1321.36 1540.38ZM1340.33 1518.88H1333.11V1514.27H1340.33V1518.88ZM1340.33 1540H1333.11V1520.65H1340.33V1540ZM1353.35 1540.38C1346.63 1540.38 1342.06 1536.58 1342.06 1530.32C1342.06 1524.03 1346.63 1520.26 1353.35 1520.26C1360.07 1520.26 1364.64 1524.03 1364.64 1530.32C1364.64 1536.58 1360.07 1540.38 1353.35 1540.38ZM1353.35 1534.01C1356.62 1534.01 1357.5 1533.13 1357.5 1530.32C1357.5 1527.52 1356.62 1526.6 1353.35 1526.6C1350.09 1526.6 1349.21 1527.52 1349.21 1530.32C1349.21 1533.13 1350.09 1534.01 1353.35 1534.01ZM1373.6 1540H1366.38V1520.65H1373.14V1526.52H1373.52C1373.94 1523.3 1376.05 1520.26 1381.24 1520.26C1386.46 1520.26 1388.92 1523.41 1388.92 1527.6V1540H1381.7V1530.25C1381.7 1527.56 1380.7 1526.71 1377.55 1526.71C1374.36 1526.71 1373.6 1527.52 1373.6 1530.02V1540Z" fill="url(#paint10_linear_26_2)"/>
</g>
<g filter="url(#filter10_d_26_2)">
<g filter="url(#filter11_b_26_2)">
<rect x="927" y="429" width="530" height="160" rx="33.6" fill="#606060" fill-opacity="0.2"/>
<rect x="928" y="430" width="528" height="158" rx="32.6" stroke="url(#paint11_linear_26_2)" stroke-width="2"/>
</g>
<path d="M1049.01 522.466C1040.06 522.466 1034.76 517.244 1034.76 509.218C1034.76 501.192 1040.06 495.97 1049.01 495.97C1058.19 495.97 1063.41 501.192 1063.41 509.218C1063.41 517.244 1058.19 522.466 1049.01 522.466ZM1049.01 515.554C1054.23 515.554 1055.73 514.325 1055.73 509.218C1055.73 504.111 1054.23 502.882 1049.01 502.882C1043.79 502.882 1042.44 504.111 1042.44 509.218C1042.44 514.325 1043.79 515.554 1049.01 515.554ZM1072.55 528.61H1065.33V502.728H1072.09V507.951H1072.48C1073.09 504.111 1075.39 502.344 1079.93 502.344C1085.84 502.344 1089.1 506.146 1089.1 512.405C1089.1 518.703 1085.92 522.466 1080.23 522.466C1075.66 522.466 1073.51 520.316 1072.94 517.09H1072.55V528.61ZM1072.55 512.636C1072.55 515.362 1074.09 515.9 1077.31 515.9C1080.65 515.9 1081.81 514.978 1081.81 512.405C1081.81 509.832 1080.65 508.949 1077.31 508.949C1074.09 508.949 1072.55 509.564 1072.55 512.367V512.636ZM1101.81 522.466C1095.24 522.466 1090.64 519.663 1090.64 512.405C1090.64 506.108 1095.21 502.344 1101.66 502.344C1108.34 502.344 1112.6 505.685 1112.6 511.906C1112.6 512.559 1112.56 513.058 1112.49 513.749H1097.32C1097.43 516.092 1098.47 516.744 1101.54 516.744C1104.46 516.744 1105.23 516.245 1105.23 515.093V514.671H1112.45V515.132C1112.45 519.432 1108.34 522.466 1101.81 522.466ZM1101.5 507.874C1098.85 507.874 1097.74 508.45 1097.43 510.101H1105.61C1105.34 508.45 1104.19 507.874 1101.5 507.874ZM1121.75 522.082H1114.53V502.728H1121.29V508.604H1121.68C1122.1 505.378 1124.21 502.344 1129.39 502.344C1134.62 502.344 1137.07 505.493 1137.07 509.679V522.082H1129.85V512.328C1129.85 509.64 1128.86 508.796 1125.71 508.796C1122.52 508.796 1121.75 509.602 1121.75 512.098V522.082ZM1151.79 522.082H1144.57V496.354H1151.79V522.082ZM1161.32 522.082H1154.1V502.728H1160.85V508.604H1161.24C1161.66 505.378 1163.77 502.344 1168.96 502.344C1174.18 502.344 1176.64 505.493 1176.64 509.679V522.082H1169.42V512.328C1169.42 509.64 1168.42 508.796 1165.27 508.796C1162.08 508.796 1161.32 509.602 1161.32 512.098V522.082ZM1185.99 522.082H1178.77V502.728H1185.53V508.604H1185.91C1186.34 505.378 1188.45 502.344 1193.63 502.344C1198.85 502.344 1201.31 505.493 1201.31 509.679V522.082H1194.09V512.328C1194.09 509.64 1193.09 508.796 1189.95 508.796C1186.76 508.796 1185.99 509.602 1185.99 512.098V522.082ZM1214.16 522.466C1207.44 522.466 1202.87 518.664 1202.87 512.405C1202.87 506.108 1207.44 502.344 1214.16 502.344C1220.88 502.344 1225.45 506.108 1225.45 512.405C1225.45 518.664 1220.88 522.466 1214.16 522.466ZM1214.16 516.092C1217.42 516.092 1218.31 515.208 1218.31 512.405C1218.31 509.602 1217.42 508.68 1214.16 508.68C1210.9 508.68 1210.01 509.602 1210.01 512.405C1210.01 515.208 1210.9 516.092 1214.16 516.092ZM1243.35 522.082H1234.44L1225.84 502.728H1233.9L1238.74 515.055H1239.24L1244.12 502.728H1252.03L1243.35 522.082ZM1259.24 522.466C1254.87 522.466 1252.41 520.469 1252.41 517.167C1252.41 514.44 1254.29 512.482 1258.67 512.06L1266.54 511.292V510.908C1266.54 508.949 1265.69 508.642 1263.12 508.642C1260.74 508.642 1260.01 509.103 1260.01 510.716V510.869H1252.79V510.792C1252.79 505.647 1257.09 502.344 1263.66 502.344C1270.42 502.344 1273.68 505.647 1273.68 511.061V522.082H1266.92V518.012H1266.54C1265.81 520.738 1263.43 522.466 1259.24 522.466ZM1259.67 516.706C1259.67 517.32 1260.28 517.436 1261.39 517.436C1264.89 517.436 1266.31 517.013 1266.5 515.285L1260.59 515.976C1259.93 516.053 1259.67 516.284 1259.67 516.706ZM1290.3 522.082H1285.23C1280.39 522.082 1277.51 519.74 1277.51 514.709V508.642H1274.67V502.728H1277.51V499.388H1284.73V502.728H1290.3V508.642H1284.73V513.672C1284.73 515.208 1285.19 515.592 1286.84 515.592H1290.3V522.082ZM1299.24 500.962H1292.02V496.354H1299.24V500.962ZM1299.24 522.082H1292.02V502.728H1299.24V522.082ZM1312.26 522.466C1305.54 522.466 1300.97 518.664 1300.97 512.405C1300.97 506.108 1305.54 502.344 1312.26 502.344C1318.98 502.344 1323.55 506.108 1323.55 512.405C1323.55 518.664 1318.98 522.466 1312.26 522.466ZM1312.26 516.092C1315.52 516.092 1316.41 515.208 1316.41 512.405C1316.41 509.602 1315.52 508.68 1312.26 508.68C1309 508.68 1308.11 509.602 1308.11 512.405C1308.11 515.208 1309 516.092 1312.26 516.092ZM1332.5 522.082H1325.28V502.728H1332.04V508.604H1332.43C1332.85 505.378 1334.96 502.344 1340.14 502.344C1345.37 502.344 1347.82 505.493 1347.82 509.679V522.082H1340.61V512.328C1340.61 509.64 1339.61 508.796 1336.46 508.796C1333.27 508.796 1332.5 509.602 1332.5 512.098V522.082Z" fill="url(#paint12_linear_26_2)"/>
</g>
<defs>
<filter id="filter0_d_26_2" x="0" y="173" width="539" height="169" filterUnits="userSpaceOnUse" color-interpolation-filters="sRGB">
<feFlood flood-opacity="0" result="BackgroundImageFix"/>
<feColorMatrix in="SourceAlpha" type="matrix" values="0 0 0 0 0 0 0 0 0 0 0 0 0 0 0 0 0 0 127 0" result="hardAlpha"/>
<feOffset dx="-5" dy="5"/>
<feGaussianBlur stdDeviation="2"/>
<feComposite in2="hardAlpha" operator="out"/>
<feColorMatrix type="matrix" values="0 0 0 0 0 0 0 0 0 0 0 0 0 0 0 0 0 0 0.15 0"/>
<feBlend mode="normal" in2="BackgroundImageFix" result="effect1_dropShadow_26_2"/>
<feBlend mode="normal" in="SourceGraphic" in2="effect1_dropShadow_26_2" result="shape"/>
</filter>
<filter id="filter1_b_26_2" x="2.6" y="166.6" width="542.8" height="172.8" filterUnits="userSpaceOnUse" color-interpolation-filters="sRGB">
<feFlood flood-opacity="0" result="BackgroundImageFix"/>
<feGaussianBlur in="BackgroundImageFix" stdDeviation="3.2"/>
<feComposite in2="SourceAlpha" operator="in" result="effect1_backgroundBlur_26_2"/>
<feBlend mode="normal" in="SourceGraphic" in2="effect1_backgroundBlur_26_2" result="shape"/>
</filter>
<filter id="filter2_d_26_2" x="0" y="683" width="539" height="169" filterUnits="userSpaceOnUse" color-interpolation-filters="sRGB">
<feFlood flood-opacity="0" result="BackgroundImageFix"/>
<feColorMatrix in="SourceAlpha" type="matrix" values="0 0 0 0 0 0 0 0 0 0 0 0 0 0 0 0 0 0 127 0" result="hardAlpha"/>
<feOffset dx="-5" dy="5"/>
<feGaussianBlur stdDeviation="2"/>
<feComposite in2="hardAlpha" operator="out"/>
<feColorMatrix type="matrix" values="0 0 0 0 0 0 0 0 0 0 0 0 0 0 0 0 0 0 0.15 0"/>
<feBlend mode="normal" in2="BackgroundImageFix" result="effect1_dropShadow_26_2"/>
<feBlend mode="normal" in="SourceGraphic" in2="effect1_dropShadow_26_2" result="shape"/>
</filter>
<filter id="filter3_b_26_2" x="2.6" y="676.6" width="542.8" height="172.8" filterUnits="userSpaceOnUse" color-interpolation-filters="sRGB">
<feFlood flood-opacity="0" result="BackgroundImageFix"/>
<feGaussianBlur in="BackgroundImageFix" stdDeviation="3.2"/>
<feComposite in2="SourceAlpha" operator="in" result="effect1_backgroundBlur_26_2"/>
<feBlend mode="normal" in="SourceGraphic" in2="effect1_backgroundBlur_26_2" result="shape"/>
</filter>
<filter id="filter4_d_26_2" x="918" y="939" width="539" height="169" filterUnits="userSpaceOnUse" color-interpolation-filters="sRGB">
<feFlood flood-opacity="0" result="BackgroundImageFix"/>
<feColorMatrix in="SourceAlpha" type="matrix" values="0 0 0 0 0 0 0 0 0 0 0 0 0 0 0 0 0 0 127 0" result="hardAlpha"/>
<feOffset dx="-5" dy="5"/>
<feGaussianBlur stdDeviation="2"/>
<feComposite in2="hardAlpha" operator="out"/>
<feColorMatrix type="matrix" values="0 0 0 0 0 0 0 0 0 0 0 0 0 0 0 0 0 0 0.15 0"/>
<feBlend mode="normal" in2="BackgroundImageFix" result="effect1_dropShadow_26_2"/>
<feBlend mode="normal" in="SourceGraphic" in2="effect1_dropShadow_26_2" result="shape"/>
</filter>
<filter id="filter5_b_26_2" x="920.6" y="932.6" width="542.8" height="172.8" filterUnits="userSpaceOnUse" color-interpolation-filters="sRGB">
<feFlood flood-opacity="0" result="BackgroundImageFix"/>
<feGaussianBlur in="BackgroundImageFix" stdDeviation="3.2"/>
<feComposite in2="SourceAlpha" operator="in" result="effect1_backgroundBlur_26_2"/>
<feBlend mode="normal" in="SourceGraphic" in2="effect1_backgroundBlur_26_2" result="shape"/>
</filter>
<filter id="filter6_d_26_2" x="0" y="1193" width="539" height="169" filterUnits="userSpaceOnUse" color-interpolation-filters="sRGB">
<feFlood flood-opacity="0" result="BackgroundImageFix"/>
<feColorMatrix in="SourceAlpha" type="matrix" values="0 0 0 0 0 0 0 0 0 0 0 0 0 0 0 0 0 0 127 0" result="hardAlpha"/>
<feOffset dx="-5" dy="5"/>
<feGaussianBlur stdDeviation="2"/>
<feComposite in2="hardAlpha" operator="out"/>
<feColorMatrix type="matrix" values="0 0 0 0 0 0 0 0 0 0 0 0 0 0 0 0 0 0 0.15 0"/>
<feBlend mode="normal" in2="BackgroundImageFix" result="effect1_dropShadow_26_2"/>
<feBlend mode="normal" in="SourceGraphic" in2="effect1_dropShadow_26_2" result="shape"/>
</filter>
<filter id="filter7_b_26_2" x="2.6" y="1186.6" width="542.8" height="172.8" filterUnits="userSpaceOnUse" color-interpolation-filters="sRGB">
<feFlood flood-opacity="0" result="BackgroundImageFix"/>
<feGaussianBlur in="BackgroundImageFix" stdDeviation="3.2"/>
<feComposite in2="SourceAlpha" operator="in" result="effect1_backgroundBlur_26_2"/>
<feBlend mode="normal" in="SourceGraphic" in2="effect1_backgroundBlur_26_2" result="shape"/>
</filter>
<filter id="filter8_d_26_2" x="918" y="1449" width="539" height="169" filterUnits="userSpaceOnUse" color-interpolation-filters="sRGB">
<feFlood flood-opacity="0" result="BackgroundImageFix"/>
<feColorMatrix in="SourceAlpha" type="matrix" values="0 0 0 0 0 0 0 0 0 0 0 0 0 0 0 0 0 0 127 0" result="hardAlpha"/>
<feOffset dx="-5" dy="5"/>
<feGaussianBlur stdDeviation="2"/>
<feComposite in2="hardAlpha" operator="out"/>
<feColorMatrix type="matrix" values="0 0 0 0 0 0 0 0 0 0 0 0 0 0 0 0 0 0 0.15 0"/>
<feBlend mode="normal" in2="BackgroundImageFix" result="effect1_dropShadow_26_2"/>
<feBlend mode="normal" in="SourceGraphic" in2="effect1_dropShadow_26_2" result="shape"/>
</filter>
<filter id="filter9_b_26_2" x="920.6" y="1442.6" width="542.8" height="172.8" filterUnits="userSpaceOnUse" color-interpolation-filters="sRGB">
<feFlood flood-opacity="0" result="BackgroundImageFix"/>
<feGaussianBlur in="BackgroundImageFix" stdDeviation="3.2"/>
<feComposite in2="SourceAlpha" operator="in" result="effect1_backgroundBlur_26_2"/>
<feBlend mode="normal" in="SourceGraphic" in2="effect1_backgroundBlur_26_2" result="shape"/>
</filter>
<filter id="filter10_d_26_2" x="918" y="429" width="539" height="169" filterUnits="userSpaceOnUse" color-interpolation-filters="sRGB">
<feFlood flood-opacity="0" result="BackgroundImageFix"/>
<feColorMatrix in="SourceAlpha" type="matrix" values="0 0 0 0 0 0 0 0 0 0 0 0 0 0 0 0 0 0 127 0" result="hardAlpha"/>
<feOffset dx="-5" dy="5"/>
<feGaussianBlur stdDeviation="2"/>
<feComposite in2="hardAlpha" operator="out"/>
<feColorMatrix type="matrix" values="0 0 0 0 0 0 0 0 0 0 0 0 0 0 0 0 0 0 0.15 0"/>
<feBlend mode="normal" in2="BackgroundImageFix" result="effect1_dropShadow_26_2"/>
<feBlend mode="normal" in="SourceGraphic" in2="effect1_dropShadow_26_2" result="shape"/>
</filter>
<filter id="filter11_b_26_2" x="920.6" y="422.6" width="542.8" height="172.8" filterUnits="userSpaceOnUse" color-interpolation-filters="sRGB">
<feFlood flood-opacity="0" result="BackgroundImageFix"/>
<feGaussianBlur in="BackgroundImageFix" stdDeviation="3.2"/>
<feComposite in2="SourceAlpha" operator="in" result="effect1_backgroundBlur_26_2"/>
<feBlend mode="normal" in="SourceGraphic" in2="effect1_backgroundBlur_26_2" result="shape"/>
</filter>
<linearGradient id="paint0_linear_26_2" x1="711" y1="-117" x2="136.331" y2="151.439" gradientUnits="userSpaceOnUse">
<stop stop-color="#2B7DF7"/>
<stop offset="0.255208" stop-color="#FAD17F"/>
<stop offset="0.5" stop-color="#DBA6BF"/>
<stop offset="0.697917" stop-color="#BF7EFB"/>
<stop offset="0.958333" stop-color="#66DFFE"/>
</linearGradient>
<linearGradient id="paint1_linear_26_2" x1="-13.2852" y1="231.252" x2="522.773" y2="271.181" gradientUnits="userSpaceOnUse">
<stop offset="0.0940888" stop-color="#64E3FF"/>
<stop offset="0.424221" stop-color="#BE7CFF"/>
<stop offset="0.731996" stop-color="#FFD876"/>
<stop offset="1" stop-color="#2D7EF9"/>
</linearGradient>
<linearGradient id="paint2_linear_26_2" x1="85.7101" y1="240.941" x2="435.421" y2="270.22" gradientUnits="userSpaceOnUse">
<stop offset="0.0940888" stop-color="#64E3FF"/>
<stop offset="0.424221" stop-color="#BE7CFF"/>
<stop offset="0.731996" stop-color="#FFD876"/>
<stop offset="1" stop-color="#2D7EF9"/>
</linearGradient>
<linearGradient id="paint3_linear_26_2" x1="-13.2852" y1="741.252" x2="522.773" y2="781.181" gradientUnits="userSpaceOnUse">
<stop offset="0.0940888" stop-color="#64E3FF"/>
<stop offset="0.424221" stop-color="#BE7CFF"/>
<stop offset="0.731996" stop-color="#FFD876"/>
<stop offset="1" stop-color="#2D7EF9"/>
</linearGradient>
<linearGradient id="paint4_linear_26_2" x1="85.7101" y1="756.723" x2="429.008" y2="811.888" gradientUnits="userSpaceOnUse">
<stop offset="0.0940888" stop-color="#64E3FF"/>
<stop offset="0.424221" stop-color="#BE7CFF"/>
<stop offset="0.731996" stop-color="#FFD876"/>
<stop offset="1" stop-color="#2D7EF9"/>
</linearGradient>
<linearGradient id="paint5_linear_26_2" x1="904.715" y1="997.252" x2="1440.77" y2="1037.18" gradientUnits="userSpaceOnUse">
<stop offset="0.0940888" stop-color="#64E3FF"/>
<stop offset="0.424221" stop-color="#BE7CFF"/>
<stop offset="0.731996" stop-color="#FFD876"/>
<stop offset="1" stop-color="#2D7EF9"/>
</linearGradient>
<linearGradient id="paint6_linear_26_2" x1="972.971" y1="1005.86" x2="1380.96" y2="1045.81" gradientUnits="userSpaceOnUse">
<stop offset="0.0940888" stop-color="#64E3FF"/>
<stop offset="0.424221" stop-color="#BE7CFF"/>
<stop offset="0.731996" stop-color="#FFD876"/>
<stop offset="1" stop-color="#2D7EF9"/>
</linearGradient>
<linearGradient id="paint7_linear_26_2" x1="-13.2852" y1="1251.25" x2="522.773" y2="1291.18" gradientUnits="userSpaceOnUse">
<stop offset="0.0940888" stop-color="#64E3FF"/>
<stop offset="0.424221" stop-color="#BE7CFF"/>
<stop offset="0.731996" stop-color="#FFD876"/>
<stop offset="1" stop-color="#2D7EF9"/>
</linearGradient>
<linearGradient id="paint8_linear_26_2" x1="54.9707" y1="1266.11" x2="451.968" y2="1343.04" gradientUnits="userSpaceOnUse">
<stop offset="0.0940888" stop-color="#64E3FF"/>
<stop offset="0.424221" stop-color="#BE7CFF"/>
<stop offset="0.731996" stop-color="#FFD876"/>
<stop offset="1" stop-color="#2D7EF9"/>
</linearGradient>
<linearGradient id="paint9_linear_26_2" x1="904.715" y1="1507.25" x2="1440.77" y2="1547.18" gradientUnits="userSpaceOnUse">
<stop offset="0.0940888" stop-color="#64E3FF"/>
<stop offset="0.424221" stop-color="#BE7CFF"/>
<stop offset="0.731996" stop-color="#FFD876"/>
<stop offset="1" stop-color="#2D7EF9"/>
</linearGradient>
<linearGradient id="paint10_linear_26_2" x1="972.971" y1="1522.11" x2="1369.97" y2="1599.04" gradientUnits="userSpaceOnUse">
<stop offset="0.0940888" stop-color="#64E3FF"/>
<stop offset="0.424221" stop-color="#BE7CFF"/>
<stop offset="0.731996" stop-color="#FFD876"/>
<stop offset="1" stop-color="#2D7EF9"/>
</linearGradient>
<linearGradient id="paint11_linear_26_2" x1="904.715" y1="487.252" x2="1440.77" y2="527.181" gradientUnits="userSpaceOnUse">
<stop offset="0.0940888" stop-color="#64E3FF"/>
<stop offset="0.424221" stop-color="#BE7CFF"/>
<stop offset="0.731996" stop-color="#FFD876"/>
<stop offset="1" stop-color="#2D7EF9"/>
</linearGradient>
<linearGradient id="paint12_linear_26_2" x1="1003.71" y1="502.723" x2="1347.01" y2="557.888" gradientUnits="userSpaceOnUse">
<stop offset="0.0940888" stop-color="#64E3FF"/>
<stop offset="0.424221" stop-color="#BE7CFF"/>
<stop offset="0.731996" stop-color="#FFD876"/>
<stop offset="1" stop-color="#2D7EF9"/>
</linearGradient>
</defs>
</svg>
